{"glyphs":{"0":{"ha":881,"x_min":0,"x_max":0,"o":"m 440 -12 b 822 496 689 -12 822 215 b 440 1003 822 775 689 1003 b 58 496 192 1003 58 775 b 440 -12 58 215 192 -12 z m 218 496 b 440 878 218 696 285 878 b 663 496 596 878 663 696 b 440 113 663 294 596 113 b 218 496 285 113 218 294 z "},"1":{"ha":535,"x_min":0,"x_max":0,"o":"m 64 749 l 64 568 l 271 801 l 271 0 l 424 0 l 424 989 l 271 989 z "},"2":{"ha":839,"x_min":0,"x_max":0,"o":"m 63 108 l 63 0 l 771 0 l 771 126 l 275 126 l 317 161 b 758 722 640 457 758 535 b 429 1006 758 886 633 1006 b 58 640 178 1006 61 854 l 218 640 b 421 871 221 806 299 871 b 596 708 540 871 596 792 b 444 457 596 603 525 539 b 63 108 346 361 165 207 z "},"3":{"ha":867,"x_min":0,"x_max":0,"o":"m 619 501 b 790 735 733 543 790 621 b 453 1006 790 892 665 1006 b 99 694 204 1006 99 858 l 256 694 b 443 882 254 821 325 882 b 626 726 556 882 626 824 b 429 563 626 626 553 563 l 325 563 l 325 439 l 443 439 b 629 274 553 439 629 378 b 443 107 629 161 542 107 b 233 297 310 107 233 186 l 76 297 b 439 -17 76 132 194 -17 b 790 258 640 -17 790 81 b 619 501 790 378 738 460 z "},"4":{"ha":819,"x_min":0,"x_max":0,"o":"m 506 210 l 506 0 l 664 0 l 664 210 l 776 210 l 776 335 l 664 335 l 664 989 l 506 989 l 50 351 l 50 210 z m 194 335 l 506 783 l 506 335 z "},"5":{"ha":883,"x_min":0,"x_max":0,"o":"m 428 -19 b 796 333 644 -19 796 113 b 496 657 796 513 693 657 b 289 589 418 657 347 632 l 338 856 l 774 856 l 774 989 l 201 989 l 108 432 l 261 432 b 453 536 296 481 358 536 b 640 332 574 536 640 446 b 442 108 640 200 564 108 b 235 310 332 108 229 161 l 71 310 b 428 -19 68 117 224 -19 z "},"6":{"ha":861,"x_min":0,"x_max":0,"o":"m 439 -19 b 782 317 638 -19 782 113 b 486 624 782 499 657 624 b 231 496 382 624 286 574 b 469 875 243 689 318 875 b 621 738 572 875 615 819 l 779 738 b 479 1007 778 883 668 1007 b 203 878 361 1007 268 957 b 75 415 111 764 74 588 b 439 -19 76 128 218 -19 z m 242 310 b 439 497 239 411 314 497 b 624 306 550 497 624 429 b 439 117 624 193 543 117 b 242 310 329 117 244 189 z "},"7":{"ha":761,"x_min":0,"x_max":0,"o":"m 40 863 l 579 863 l 129 0 l 296 0 l 733 863 l 733 989 l 40 989 z "},"8":{"ha":860,"x_min":0,"x_max":0,"o":"m 429 -21 b 796 263 647 -21 796 92 b 625 507 796 389 736 463 b 625 507 624 507 625 507 b 782 735 726 551 782 624 b 429 1007 782 892 636 1007 b 78 735 211 1007 78 882 b 233 508 78 625 133 553 b 233 508 233 507 233 508 b 64 263 124 464 64 389 b 429 -21 64 93 211 -21 z m 226 281 b 429 439 226 389 314 439 b 633 281 549 439 633 389 b 431 108 633 174 556 108 b 226 281 306 107 226 174 z m 233 713 b 431 879 233 819 306 879 b 626 713 557 881 626 819 b 429 564 626 617 543 564 b 233 713 317 564 233 617 z "},"9":{"ha":861,"x_min":0,"x_max":0,"o":"m 422 1008 b 79 672 224 1008 79 876 b 375 365 79 490 204 365 b 631 493 479 365 575 415 b 392 114 618 300 543 114 b 240 251 289 114 246 169 l 82 251 b 382 -18 83 106 193 -18 b 658 111 500 -18 593 32 b 786 574 750 225 788 401 b 422 1008 785 861 643 1008 z m 238 683 b 422 872 238 796 318 872 b 619 679 532 872 617 800 b 422 492 622 578 547 492 b 238 683 311 492 238 560 z "}," ":{"ha":454,"x_min":0,"x_max":0,"o":""}," ":{"ha":454,"x_min":0,"x_max":0,"o":""},"A":{"ha":994,"x_min":0,"x_max":0,"o":"m 965 0 l 590 989 l 404 989 l 29 0 l 186 0 l 285 264 l 710 264 l 808 0 z m 332 390 l 499 833 l 663 390 z "},"Á":{"ha":994,"x_min":0,"x_max":0,"o":"m 965 0 l 590 989 l 404 989 l 29 0 l 186 0 l 285 264 l 710 264 l 808 0 z m 332 390 l 499 833 l 663 390 z m 424 1065 l 529 1065 l 682 1282 l 536 1282 z "},"Ă":{"ha":994,"x_min":0,"x_max":0,"o":"m 965 0 l 590 989 l 404 989 l 29 0 l 186 0 l 285 264 l 710 264 l 808 0 z m 281 1271 b 496 1057 282 1131 382 1057 b 711 1271 610 1057 710 1131 l 610 1271 b 496 1147 608 1185 561 1147 b 382 1271 431 1147 383 1185 z m 332 390 l 499 833 l 663 390 z "},"Ǎ":{"ha":994,"x_min":0,"x_max":0,"o":"m 965 0 l 590 989 l 404 989 l 29 0 l 186 0 l 285 264 l 710 264 l 808 0 z m 238 1282 l 401 1065 l 589 1065 l 754 1282 l 633 1282 l 497 1133 l 496 1133 l 358 1282 z m 332 390 l 499 833 l 663 390 z "},"Â":{"ha":994,"x_min":0,"x_max":0,"o":"m 965 0 l 590 989 l 404 989 l 29 0 l 186 0 l 285 264 l 710 264 l 808 0 z m 240 1065 l 364 1065 l 499 1214 l 632 1065 l 756 1065 l 592 1282 l 404 1282 z m 332 390 l 499 833 l 663 390 z "},"Ä":{"ha":994,"x_min":0,"x_max":0,"o":"m 965 0 l 590 989 l 404 989 l 29 0 l 186 0 l 285 264 l 710 264 l 808 0 z m 257 1197 b 339 1115 257 1154 294 1115 b 418 1197 382 1115 418 1154 b 339 1278 418 1240 382 1278 b 257 1197 294 1278 257 1240 z m 332 390 l 499 833 l 663 390 z m 574 1197 b 654 1115 574 1154 610 1115 b 733 1197 697 1115 733 1154 b 654 1278 733 1240 697 1278 b 574 1197 610 1278 574 1240 z "},"À":{"ha":994,"x_min":0,"x_max":0,"o":"m 965 0 l 590 989 l 404 989 l 29 0 l 186 0 l 285 264 l 710 264 l 808 0 z m 308 1282 l 461 1065 l 567 1065 l 454 1282 z m 332 390 l 499 833 l 663 390 z "},"Ā":{"ha":994,"x_min":0,"x_max":0,"o":"m 965 0 l 590 989 l 404 989 l 29 0 l 186 0 l 285 264 l 710 264 l 808 0 z m 332 390 l 499 833 l 663 390 z m 338 1143 l 656 1143 l 656 1228 l 338 1228 z "},"Ą":{"ha":994,"x_min":0,"x_max":0,"o":"m 965 0 l 590 989 l 404 989 l 29 0 l 186 0 l 285 264 l 710 264 l 808 0 l 850 0 b 715 -196 783 -46 715 -117 b 846 -314 715 -262 772 -314 b 967 -282 882 -314 936 -304 l 967 -211 b 904 -232 942 -226 922 -232 b 847 -172 871 -232 847 -207 b 965 0 847 -119 901 -51 z m 332 390 l 499 833 l 663 390 z "},"Å":{"ha":994,"x_min":0,"x_max":0,"o":"m 965 0 l 590 989 l 404 989 l 29 0 l 186 0 l 285 264 l 710 264 l 808 0 z m 332 390 l 499 833 l 663 390 z m 333 1221 b 496 1383 333 1310 406 1383 b 658 1221 583 1383 658 1310 b 496 1060 658 1133 583 1060 b 333 1221 406 1060 333 1133 z m 421 1221 b 496 1146 421 1179 454 1146 b 571 1221 536 1146 571 1179 b 496 1297 571 1264 536 1297 b 421 1221 454 1297 421 1264 z "},"Ã":{"ha":994,"x_min":0,"x_max":0,"o":"m 965 0 l 590 989 l 404 989 l 29 0 l 186 0 l 285 264 l 710 264 l 808 0 z m 219 1057 l 324 1057 l 324 1086 b 389 1160 324 1129 346 1160 b 482 1117 422 1160 449 1139 b 618 1063 524 1086 565 1063 b 774 1222 703 1063 774 1126 l 774 1265 l 669 1265 l 669 1236 b 603 1163 669 1189 647 1163 b 511 1207 571 1163 544 1183 b 375 1260 469 1236 428 1260 b 219 1094 290 1260 219 1194 z m 332 390 l 499 833 l 663 390 z "},"Æ":{"ha":1375,"x_min":0,"x_max":0,"o":"m 29 0 l 185 0 l 282 264 l 626 264 l 626 0 l 1306 0 l 1306 131 l 783 131 l 783 449 l 1261 449 l 1261 571 l 783 571 l 783 861 l 1306 861 l 1306 989 l 404 989 z m 329 390 l 503 858 l 626 858 l 626 390 z "},"B":{"ha":942,"x_min":0,"x_max":0,"o":"m 111 0 l 593 0 b 874 275 743 0 874 67 b 689 508 874 407 801 489 b 847 732 776 531 847 614 b 575 989 847 899 733 989 l 111 989 z m 269 131 b 269 451 269 131 269 451 l 538 451 b 710 292 647 451 710 393 b 544 131 710 178 647 131 z m 269 564 b 269 857 269 564 269 857 l 535 857 b 690 711 635 857 690 803 b 543 564 690 608 628 564 z "},"C":{"ha":1003,"x_min":0,"x_max":0,"o":"m 779 299 b 536 117 761 192 671 117 b 226 499 357 117 226 278 b 533 871 226 714 354 871 b 775 669 679 871 763 783 l 931 669 b 529 1003 917 869 749 1003 b 64 500 260 1003 64 803 b 528 -17 64 190 260 -17 b 936 299 746 -17 903 104 z "},"Ć":{"ha":1003,"x_min":0,"x_max":0,"o":"m 779 299 b 536 117 761 192 671 117 b 226 499 357 117 226 278 b 533 871 226 714 354 871 b 775 669 679 871 763 783 l 931 669 b 529 1003 917 869 749 1003 b 64 500 260 1003 64 803 b 528 -17 64 190 260 -17 b 936 299 746 -17 903 104 z m 442 1065 l 547 1065 l 700 1282 l 554 1282 z "},"Č":{"ha":1003,"x_min":0,"x_max":0,"o":"m 779 299 b 536 117 761 192 671 117 b 226 499 357 117 226 278 b 533 871 226 714 354 871 b 775 669 679 871 763 783 l 931 669 b 529 1003 917 869 749 1003 b 64 500 260 1003 64 803 b 528 -17 64 190 260 -17 b 936 299 746 -17 903 104 z m 256 1282 l 419 1065 l 607 1065 l 772 1282 l 651 1282 l 515 1133 l 514 1133 l 376 1282 z "},"Ç":{"ha":1003,"x_min":0,"x_max":0,"o":"m 779 299 b 536 117 761 192 671 117 b 226 499 357 117 226 278 b 533 871 226 714 354 871 b 775 669 679 871 763 783 l 931 669 b 529 1003 917 869 749 1003 b 64 500 260 1003 64 803 b 478 -14 64 210 236 10 l 432 -104 l 478 -140 b 535 -126 496 -131 517 -126 b 597 -178 575 -126 597 -147 b 528 -235 597 -217 564 -235 b 446 -187 489 -235 463 -211 l 375 -218 b 531 -308 406 -281 469 -308 b 688 -176 631 -308 688 -246 b 579 -62 688 -114 643 -69 b 536 -67 564 -62 550 -62 l 564 -15 b 936 299 763 -3 904 115 z "},"Ĉ":{"ha":1003,"x_min":0,"x_max":0,"o":"m 779 299 b 536 117 761 192 671 117 b 226 499 357 117 226 278 b 533 871 226 714 354 871 b 775 669 679 871 763 783 l 931 669 b 529 1003 917 869 749 1003 b 64 500 260 1003 64 803 b 528 -17 64 190 260 -17 b 936 299 746 -17 903 104 z m 257 1065 l 381 1065 l 515 1214 l 649 1065 l 772 1065 l 608 1282 l 421 1282 z "},"Ċ":{"ha":1003,"x_min":0,"x_max":0,"o":"m 779 299 b 536 117 761 192 671 117 b 226 499 357 117 226 278 b 533 871 226 714 354 871 b 775 669 679 871 763 783 l 931 669 b 529 1003 917 869 749 1003 b 64 500 260 1003 64 803 b 528 -17 64 190 260 -17 b 936 299 746 -17 903 104 z m 419 1229 b 514 1135 419 1179 464 1135 b 607 1229 564 1135 607 1179 b 514 1324 607 1279 564 1324 b 419 1229 464 1324 419 1279 z "},"D":{"ha":1060,"x_min":0,"x_max":0,"o":"m 111 0 l 518 0 b 996 503 758 0 996 147 b 518 989 996 829 776 989 l 111 989 z m 268 131 b 268 131 269 131 268 131 l 268 858 l 494 858 b 833 503 707 858 833 715 b 494 131 833 260 685 131 z "},"Ð":{"ha":1079,"x_min":0,"x_max":0,"o":"m 131 0 l 538 0 b 1015 503 778 0 1015 147 b 538 989 1015 829 796 989 l 131 989 l 131 556 l 53 556 l 53 439 l 131 439 z m 288 131 b 288 131 289 131 288 131 l 288 439 l 485 439 l 485 556 l 288 556 l 288 858 l 514 858 b 853 503 726 858 853 715 b 514 131 853 260 704 131 z "},"Ď":{"ha":1060,"x_min":0,"x_max":0,"o":"m 111 0 l 518 0 b 996 503 758 0 996 147 b 518 989 996 829 776 989 l 111 989 z m 257 1282 l 421 1065 l 608 1065 l 774 1282 l 653 1282 l 517 1133 l 515 1133 l 378 1282 z m 268 131 b 268 131 269 131 268 131 l 268 858 l 494 858 b 833 503 707 858 833 715 b 494 131 833 260 685 131 z "},"Đ":{"ha":1079,"x_min":0,"x_max":0,"o":"m 131 0 l 538 0 b 1015 503 778 0 1015 147 b 538 989 1015 829 796 989 l 131 989 l 131 556 l 53 556 l 53 439 l 131 439 z m 288 131 b 288 131 289 131 288 131 l 288 439 l 485 439 l 485 556 l 288 556 l 288 858 l 514 858 b 853 503 726 858 853 715 b 514 131 853 260 704 131 z "},"E":{"ha":868,"x_min":0,"x_max":0,"o":"m 111 0 l 790 0 l 790 132 l 268 132 l 268 457 l 763 457 l 763 579 l 268 579 b 268 579 268 579 268 579 l 268 857 l 799 857 l 799 989 l 111 989 z "},"É":{"ha":868,"x_min":0,"x_max":0,"o":"m 111 0 l 790 0 l 790 132 l 268 132 l 268 457 l 763 457 l 763 579 l 268 579 b 268 579 268 579 268 579 l 268 857 l 799 857 l 799 989 l 111 989 z m 376 1065 l 482 1065 l 635 1282 l 489 1282 z "},"Ě":{"ha":868,"x_min":0,"x_max":0,"o":"m 111 0 l 790 0 l 790 132 l 268 132 l 268 457 l 763 457 l 763 579 l 268 579 b 268 579 268 579 268 579 l 268 857 l 799 857 l 799 989 l 111 989 z m 190 1282 l 354 1065 l 542 1065 l 707 1282 l 586 1282 l 450 1133 l 449 1133 l 311 1282 z "},"Ê":{"ha":868,"x_min":0,"x_max":0,"o":"m 111 0 l 790 0 l 790 132 l 268 132 l 268 457 l 763 457 l 763 579 l 268 579 b 268 579 268 579 268 579 l 268 857 l 799 857 l 799 989 l 111 989 z m 192 1065 l 315 1065 l 450 1214 l 583 1065 l 707 1065 l 543 1282 l 356 1282 z "},"Ë":{"ha":868,"x_min":0,"x_max":0,"o":"m 111 0 l 790 0 l 790 132 l 268 132 l 268 457 l 763 457 l 763 579 l 268 579 b 268 579 268 579 268 579 l 268 857 l 799 857 l 799 989 l 111 989 z m 210 1197 b 292 1115 210 1154 247 1115 b 371 1197 335 1115 371 1154 b 292 1278 371 1240 335 1278 b 210 1197 247 1278 210 1240 z m 526 1197 b 607 1115 526 1154 563 1115 b 686 1197 650 1115 686 1154 b 607 1278 686 1240 650 1278 b 526 1197 563 1278 526 1240 z "},"Ė":{"ha":868,"x_min":0,"x_max":0,"o":"m 111 0 l 790 0 l 790 132 l 268 132 l 268 457 l 763 457 l 763 579 l 268 579 b 268 579 268 579 268 579 l 268 857 l 799 857 l 799 989 l 111 989 z m 354 1229 b 449 1135 354 1179 399 1135 b 542 1229 499 1135 542 1179 b 449 1324 542 1279 499 1324 b 354 1229 399 1324 354 1279 z "},"È":{"ha":868,"x_min":0,"x_max":0,"o":"m 111 0 l 790 0 l 790 132 l 268 132 l 268 457 l 763 457 l 763 579 l 268 579 b 268 579 268 579 268 579 l 268 857 l 799 857 l 799 989 l 111 989 z m 261 1282 l 414 1065 l 519 1065 l 407 1282 z "},"Ē":{"ha":868,"x_min":0,"x_max":0,"o":"m 111 0 l 790 0 l 790 132 l 268 132 l 268 457 l 763 457 l 763 579 l 268 579 b 268 579 268 579 268 579 l 268 857 l 799 857 l 799 989 l 111 989 z m 289 1143 l 607 1143 l 607 1228 l 289 1228 z "},"Ę":{"ha":868,"x_min":0,"x_max":0,"o":"m 111 0 l 675 0 b 540 -196 608 -46 540 -117 b 671 -314 540 -262 597 -314 b 792 -282 707 -314 761 -304 l 792 -211 b 729 -232 767 -226 747 -232 b 672 -172 696 -232 672 -207 b 790 0 672 -119 726 -51 l 790 132 l 268 132 l 268 457 l 763 457 l 763 579 l 268 579 b 268 579 268 579 268 579 l 268 857 l 799 857 l 799 989 l 111 989 z "},"Ẽ":{"ha":868,"x_min":0,"x_max":0,"o":"m 111 0 l 790 0 l 790 132 l 268 132 l 268 457 l 763 457 l 763 579 l 268 579 b 268 579 268 579 268 579 l 268 857 l 799 857 l 799 989 l 111 989 z m 172 1057 l 276 1057 l 276 1086 b 342 1160 276 1129 299 1160 b 435 1117 375 1160 401 1139 b 571 1063 476 1086 518 1063 b 726 1222 656 1063 726 1126 l 726 1265 l 622 1265 l 622 1236 b 556 1163 622 1189 600 1163 b 464 1207 524 1163 497 1183 b 328 1260 422 1236 381 1260 b 172 1094 243 1260 172 1194 z "},"F":{"ha":868,"x_min":0,"x_max":0,"o":"m 799 989 l 111 989 l 111 0 l 268 0 l 268 457 l 750 457 l 750 579 l 268 579 b 268 579 268 579 268 579 l 268 857 l 799 857 z "},"G":{"ha":1032,"x_min":0,"x_max":0,"o":"m 64 500 b 518 -19 64 183 250 -19 b 821 138 643 -19 753 31 l 825 0 l 953 0 l 953 499 l 506 499 l 506 376 l 817 376 l 818 376 b 542 110 806 178 665 110 b 226 500 356 110 228 265 b 535 875 226 715 356 875 b 772 672 676 875 760 792 l 931 672 b 532 1008 908 885 750 1008 b 64 500 263 1008 64 803 z "},"Ğ":{"ha":1032,"x_min":0,"x_max":0,"o":"m 64 500 b 518 -19 64 183 250 -19 b 821 138 643 -19 753 31 l 825 0 l 953 0 l 953 499 l 506 499 l 506 376 l 817 376 l 818 376 b 542 110 806 178 665 110 b 226 500 356 110 228 265 b 535 875 226 715 356 875 b 772 672 676 875 760 792 l 931 672 b 532 1008 908 885 750 1008 b 64 500 263 1008 64 803 z m 301 1271 b 517 1057 303 1131 403 1057 b 732 1271 631 1057 731 1131 l 631 1271 b 517 1147 629 1185 582 1147 b 403 1271 451 1147 404 1185 z "},"Ĝ":{"ha":1032,"x_min":0,"x_max":0,"o":"m 64 500 b 518 -19 64 183 250 -19 b 821 138 643 -19 753 31 l 825 0 l 953 0 l 953 499 l 506 499 l 506 376 l 817 376 l 818 376 b 542 110 806 178 665 110 b 226 500 356 110 228 265 b 535 875 226 715 356 875 b 772 672 676 875 760 792 l 931 672 b 532 1008 908 885 750 1008 b 64 500 263 1008 64 803 z m 260 1065 l 383 1065 l 518 1214 l 651 1065 l 775 1065 l 611 1282 l 424 1282 z "},"Ģ":{"ha":1032,"x_min":0,"x_max":0,"o":"m 64 500 b 518 -19 64 183 250 -19 b 821 138 643 -19 753 31 l 825 0 l 953 0 l 953 499 l 506 499 l 506 376 l 817 376 l 818 376 b 542 110 806 178 665 110 b 226 500 356 110 228 265 b 535 875 226 715 356 875 b 772 672 676 875 760 792 l 931 672 b 532 1008 908 885 750 1008 b 64 500 263 1008 64 803 z m 429 -386 b 503 -385 453 -390 475 -390 b 635 -210 578 -371 635 -300 b 531 -83 635 -140 601 -83 b 444 -168 478 -83 444 -122 b 535 -240 444 -218 488 -244 b 429 -328 536 -299 492 -336 z "},"Ġ":{"ha":1032,"x_min":0,"x_max":0,"o":"m 64 500 b 518 -19 64 183 250 -19 b 821 138 643 -19 753 31 l 825 0 l 953 0 l 953 499 l 506 499 l 506 376 l 817 376 l 818 376 b 542 110 806 178 665 110 b 226 500 356 110 228 265 b 535 875 226 715 356 875 b 772 672 676 875 760 792 l 931 672 b 532 1008 908 885 750 1008 b 64 500 263 1008 64 803 z m 424 1229 b 518 1135 424 1179 468 1135 b 611 1229 568 1135 611 1179 b 518 1324 611 1279 568 1324 b 424 1229 468 1324 424 1279 z "},"Ḡ":{"ha":1032,"x_min":0,"x_max":0,"o":"m 64 500 b 518 -19 64 183 250 -19 b 821 138 643 -19 753 31 l 825 0 l 953 0 l 953 499 l 506 499 l 506 376 l 817 376 l 818 376 b 542 110 806 178 665 110 b 226 500 356 110 228 265 b 535 875 226 715 356 875 b 772 672 676 875 760 792 l 931 672 b 532 1008 908 885 750 1008 b 64 500 263 1008 64 803 z m 358 1143 l 676 1143 l 676 1228 l 358 1228 z "},"H":{"ha":993,"x_min":0,"x_max":0,"o":"m 111 989 l 111 0 l 268 0 l 268 443 l 725 443 l 725 0 l 882 0 l 882 989 l 725 989 l 725 575 l 268 575 l 268 989 z "},"Ĥ":{"ha":993,"x_min":0,"x_max":0,"o":"m 111 989 l 111 0 l 268 0 l 268 443 l 725 443 l 725 0 l 882 0 l 882 989 l 725 989 l 725 575 l 268 575 l 268 989 z m 239 1065 l 363 1065 l 497 1214 l 631 1065 l 754 1065 l 590 1282 l 403 1282 z "},"I":{"ha":379,"x_min":0,"x_max":0,"o":"m 268 989 l 111 989 l 113 0 l 268 0 z "},"Ĳ":{"ha":903,"x_min":0,"x_max":0,"o":"m 268 989 l 111 989 l 113 0 l 268 0 z m 411 1 b 546 -22 451 -11 493 -22 b 806 238 700 -22 806 67 l 806 989 l 649 989 l 649 251 b 568 122 649 182 621 136 b 411 138 528 107 476 111 z "},"Í":{"ha":379,"x_min":0,"x_max":0,"o":"m 268 989 l 111 989 l 113 0 l 268 0 z m 117 1065 l 222 1065 l 375 1282 l 229 1282 z "},"Î":{"ha":379,"x_min":0,"x_max":0,"o":"m 268 989 l 111 989 l 113 0 l 268 0 z m -68 1065 l 56 1065 l 190 1214 l 324 1065 l 447 1065 l 283 1282 l 96 1282 z "},"Ï":{"ha":379,"x_min":0,"x_max":0,"o":"m 268 989 l 111 989 l 113 0 l 268 0 z m -50 1197 b 32 1115 -50 1154 -12 1115 b 111 1197 75 1115 111 1154 b 32 1278 111 1240 75 1278 b -50 1197 -12 1278 -50 1240 z m 267 1197 b 347 1115 267 1154 303 1115 b 426 1197 390 1115 426 1154 b 347 1278 426 1240 390 1278 b 267 1197 303 1278 267 1240 z "},"İ":{"ha":379,"x_min":0,"x_max":0,"o":"m 268 989 l 111 989 l 113 0 l 268 0 z m 96 1229 b 190 1135 96 1179 140 1135 b 283 1229 240 1135 283 1179 b 190 1324 283 1279 240 1324 b 96 1229 140 1324 96 1279 z "},"Ì":{"ha":379,"x_min":0,"x_max":0,"o":"m 268 989 l 111 989 l 113 0 l 268 0 z m 1 1282 l 154 1065 l 260 1065 l 147 1282 z "},"Ī":{"ha":379,"x_min":0,"x_max":0,"o":"m 268 989 l 111 989 l 113 0 l 268 0 z m 31 1143 l 349 1143 l 349 1228 l 31 1228 z "},"Į":{"ha":379,"x_min":0,"x_max":0,"o":"m 268 989 l 111 989 l 113 0 l 153 0 b 18 -196 86 -46 18 -117 b 149 -314 18 -262 75 -314 b 269 -282 185 -314 239 -304 l 269 -211 b 207 -232 244 -226 225 -232 b 150 -172 174 -232 150 -207 b 268 0 150 -119 204 -51 z "},"Ĩ":{"ha":379,"x_min":0,"x_max":0,"o":"m 268 989 l 111 989 l 113 0 l 268 0 z m -87 1057 l 17 1057 l 17 1086 b 82 1160 17 1129 39 1160 b 175 1117 115 1160 142 1139 b 311 1063 217 1086 258 1063 b 467 1222 396 1063 467 1126 l 467 1265 l 363 1265 l 363 1236 b 296 1163 363 1189 340 1163 b 204 1207 264 1163 238 1183 b 68 1260 163 1236 121 1260 b -87 1094 -17 1260 -87 1194 z "},"J":{"ha":546,"x_min":0,"x_max":0,"o":"m 449 238 l 449 989 l 292 989 l 292 251 b 211 122 292 182 264 136 b 54 138 171 107 119 111 l 54 1 b 189 -22 94 -11 136 -22 b 449 238 343 -22 449 67 z "},"Ĵ":{"ha":546,"x_min":0,"x_max":0,"o":"m 449 238 l 449 989 l 292 989 l 292 251 b 211 122 292 182 264 136 b 54 138 171 107 119 111 l 54 1 b 189 -22 94 -11 136 -22 b 449 238 343 -22 449 67 z m 111 1065 l 235 1065 l 369 1214 l 503 1065 l 626 1065 l 463 1282 l 275 1282 z "},"K":{"ha":896,"x_min":0,"x_max":0,"o":"m 667 989 l 268 565 l 268 988 l 111 989 l 111 0 l 268 0 l 268 372 l 371 479 l 692 0 l 874 0 l 475 585 l 869 989 z "},"Ķ":{"ha":896,"x_min":0,"x_max":0,"o":"m 667 989 l 268 565 l 268 988 l 111 989 l 111 0 l 268 0 l 268 372 l 371 479 l 692 0 l 874 0 l 475 585 l 869 989 z m 347 -386 b 421 -385 371 -390 393 -390 b 553 -210 496 -371 553 -300 b 449 -83 553 -140 519 -83 b 363 -168 396 -83 363 -122 b 453 -240 363 -218 406 -244 b 347 -328 454 -299 410 -336 z "},"L":{"ha":786,"x_min":0,"x_max":0,"o":"m 268 126 l 268 989 l 111 989 l 111 0 l 746 0 l 746 126 z "},"Ĺ":{"ha":786,"x_min":0,"x_max":0,"o":"m 268 126 l 268 989 l 111 989 l 111 0 l 746 0 l 746 126 z m 326 1065 l 432 1065 l 585 1282 l 439 1282 z "},"Ľ":{"ha":786,"x_min":0,"x_max":0,"o":"m 268 126 l 268 989 l 111 989 l 111 0 l 746 0 l 746 126 z m 532 703 b 606 704 556 699 578 699 b 738 879 681 718 738 789 b 633 1006 738 949 704 1006 b 547 921 581 1006 547 967 b 638 849 547 871 590 844 b 532 761 639 790 594 753 z "},"Ļ":{"ha":786,"x_min":0,"x_max":0,"o":"m 268 126 l 268 989 l 111 989 l 111 0 l 746 0 l 746 126 z m 299 -386 b 372 -385 322 -390 344 -390 b 504 -210 447 -371 504 -300 b 400 -83 504 -140 471 -83 b 314 -168 347 -83 314 -122 b 404 -240 314 -218 357 -244 b 299 -328 406 -299 361 -336 z "},"Ł":{"ha":786,"x_min":0,"x_max":0,"o":"m 535 696 l 268 585 l 268 989 l 111 989 l 111 519 l -14 468 l -14 335 l 111 386 l 111 0 l 746 0 l 746 126 l 268 126 l 268 451 l 535 563 z "},"M":{"ha":1233,"x_min":0,"x_max":0,"o":"m 111 0 l 269 0 l 269 774 l 547 0 l 686 0 l 964 774 l 964 0 l 1122 0 l 1122 989 l 888 989 l 617 214 l 346 989 l 111 989 z "},"N":{"ha":1007,"x_min":0,"x_max":0,"o":"m 111 989 l 111 0 l 269 0 l 269 768 l 690 0 l 896 0 l 896 989 l 738 989 l 739 207 l 319 989 z "},"Ń":{"ha":1007,"x_min":0,"x_max":0,"o":"m 111 989 l 111 0 l 269 0 l 269 768 l 690 0 l 896 0 l 896 989 l 738 989 l 739 207 l 319 989 z m 425 1065 l 531 1065 l 683 1282 l 538 1282 z "},"Ň":{"ha":1007,"x_min":0,"x_max":0,"o":"m 111 989 l 111 0 l 269 0 l 269 768 l 690 0 l 896 0 l 896 989 l 738 989 l 739 207 l 319 989 z m 239 1282 l 403 1065 l 590 1065 l 756 1282 l 635 1282 l 499 1133 l 497 1133 l 360 1282 z "},"Ņ":{"ha":1007,"x_min":0,"x_max":0,"o":"m 111 989 l 111 0 l 269 0 l 269 768 l 690 0 l 896 0 l 896 989 l 738 989 l 739 207 l 319 989 z m 397 -386 b 471 -385 421 -390 443 -390 b 603 -210 546 -371 603 -300 b 499 -83 603 -140 569 -83 b 413 -168 446 -83 413 -122 b 503 -240 413 -218 456 -244 b 397 -328 504 -299 460 -336 z "},"Ñ":{"ha":1007,"x_min":0,"x_max":0,"o":"m 111 989 l 111 0 l 269 0 l 269 768 l 690 0 l 896 0 l 896 989 l 738 989 l 739 207 l 319 989 z m 221 1057 l 325 1057 l 325 1086 b 390 1160 325 1129 347 1160 b 483 1117 424 1160 450 1139 b 619 1063 525 1086 567 1063 b 775 1222 704 1063 775 1126 l 775 1265 l 671 1265 l 671 1236 b 604 1163 671 1189 649 1163 b 513 1207 572 1163 546 1183 b 376 1260 471 1236 429 1260 b 221 1094 292 1260 221 1194 z "},"O":{"ha":1057,"x_min":0,"x_max":0,"o":"m 528 -21 b 993 500 814 -21 993 190 b 528 1006 993 799 814 1006 b 64 500 243 1006 64 799 b 528 -21 64 190 243 -21 z m 226 499 b 528 872 226 739 358 872 b 829 499 699 872 829 739 b 528 114 829 263 699 114 b 226 499 358 114 226 263 z "},"Ó":{"ha":1057,"x_min":0,"x_max":0,"o":"m 528 -21 b 993 500 814 -21 993 190 b 528 1006 993 799 814 1006 b 64 500 243 1006 64 799 b 528 -21 64 190 243 -21 z m 226 499 b 528 872 226 739 358 872 b 829 499 699 872 829 739 b 528 114 829 263 699 114 b 226 499 358 114 226 263 z m 451 1065 l 557 1065 l 710 1282 l 564 1282 z "},"Ô":{"ha":1057,"x_min":0,"x_max":0,"o":"m 528 -21 b 993 500 814 -21 993 190 b 528 1006 993 799 814 1006 b 64 500 243 1006 64 799 b 528 -21 64 190 243 -21 z m 226 499 b 528 872 226 739 358 872 b 829 499 699 872 829 739 b 528 114 829 263 699 114 b 226 499 358 114 226 263 z m 267 1065 l 390 1065 l 525 1214 l 658 1065 l 782 1065 l 618 1282 l 431 1282 z "},"Ö":{"ha":1057,"x_min":0,"x_max":0,"o":"m 528 -21 b 993 500 814 -21 993 190 b 528 1006 993 799 814 1006 b 64 500 243 1006 64 799 b 528 -21 64 190 243 -21 z m 226 499 b 528 872 226 739 358 872 b 829 499 699 872 829 739 b 528 114 829 263 699 114 b 226 499 358 114 226 263 z m 285 1197 b 367 1115 285 1154 322 1115 b 446 1197 410 1115 446 1154 b 367 1278 446 1240 410 1278 b 285 1197 322 1278 285 1240 z m 601 1197 b 682 1115 601 1154 638 1115 b 761 1197 725 1115 761 1154 b 682 1278 761 1240 725 1278 b 601 1197 638 1278 601 1240 z "},"Ò":{"ha":1057,"x_min":0,"x_max":0,"o":"m 528 -21 b 993 500 814 -21 993 190 b 528 1006 993 799 814 1006 b 64 500 243 1006 64 799 b 528 -21 64 190 243 -21 z m 226 499 b 528 872 226 739 358 872 b 829 499 699 872 829 739 b 528 114 829 263 699 114 b 226 499 358 114 226 263 z m 336 1282 l 489 1065 l 594 1065 l 482 1282 z "},"Ő":{"ha":1057,"x_min":0,"x_max":0,"o":"m 528 -21 b 993 500 814 -21 993 190 b 528 1006 993 799 814 1006 b 64 500 243 1006 64 799 b 528 -21 64 190 243 -21 z m 226 499 b 528 872 226 739 358 872 b 829 499 699 872 829 739 b 528 114 829 263 699 114 b 226 499 358 114 226 263 z m 331 1065 l 433 1065 l 607 1282 l 468 1282 z m 529 1065 l 632 1065 l 806 1282 l 667 1282 z "},"Ō":{"ha":1057,"x_min":0,"x_max":0,"o":"m 528 -21 b 993 500 814 -21 993 190 b 528 1006 993 799 814 1006 b 64 500 243 1006 64 799 b 528 -21 64 190 243 -21 z m 226 499 b 528 872 226 739 358 872 b 829 499 699 872 829 739 b 528 114 829 263 699 114 b 226 499 358 114 226 263 z m 365 1143 l 683 1143 l 683 1228 l 365 1228 z "},"Ø":{"ha":1057,"x_min":0,"x_max":0,"o":"m 528 -21 b 993 500 814 -21 993 190 b 808 918 993 683 926 831 l 865 1022 l 783 1022 l 747 957 b 528 1006 685 989 611 1006 b 64 500 243 1006 64 799 b 256 63 64 307 133 151 l 196 -47 l 278 -47 l 318 25 b 528 -21 379 -4 449 -21 z m 226 499 b 528 872 226 739 358 872 b 678 831 583 872 635 858 l 331 199 b 226 499 267 265 226 368 z m 388 153 l 735 785 b 829 499 793 721 829 625 b 528 114 829 263 699 114 b 388 153 476 114 429 128 z "},"Õ":{"ha":1057,"x_min":0,"x_max":0,"o":"m 528 -21 b 993 500 814 -21 993 190 b 528 1006 993 799 814 1006 b 64 500 243 1006 64 799 b 528 -21 64 190 243 -21 z m 226 499 b 528 872 226 739 358 872 b 829 499 699 872 829 739 b 528 114 829 263 699 114 b 226 499 358 114 226 263 z m 247 1057 l 351 1057 l 351 1086 b 417 1160 351 1129 374 1160 b 510 1117 450 1160 476 1139 b 646 1063 551 1086 593 1063 b 801 1222 731 1063 801 1126 l 801 1265 l 697 1265 l 697 1236 b 631 1163 697 1189 675 1163 b 539 1207 599 1163 572 1183 b 403 1260 497 1236 456 1260 b 247 1094 318 1260 247 1194 z "},"Œ":{"ha":1594,"x_min":0,"x_max":0,"o":"m 528 -21 b 838 93 654 -21 760 21 l 838 0 l 1517 0 l 1517 132 l 994 132 l 994 457 l 1489 457 l 1489 579 l 994 579 b 994 579 994 579 994 579 l 994 857 l 1525 857 l 1525 989 l 838 989 l 838 894 b 528 1006 760 965 654 1006 b 64 500 243 1006 64 799 b 528 -21 64 190 243 -21 z m 226 499 b 528 872 226 739 358 872 b 829 499 699 872 829 739 b 528 114 829 263 699 114 b 226 499 358 114 226 263 z "},"P":{"ha":918,"x_min":0,"x_max":0,"o":"m 883 683 b 553 989 883 890 729 989 l 111 989 l 111 0 l 268 0 l 268 372 l 556 372 b 883 683 722 372 883 463 z m 268 494 l 268 863 l 529 863 b 719 682 650 863 719 790 b 529 494 719 569 650 494 z "},"Þ":{"ha":899,"x_min":0,"x_max":0,"o":"m 268 989 l 111 989 l 111 0 l 268 0 l 268 190 l 549 190 b 864 501 710 190 864 264 b 543 807 864 708 725 807 l 268 807 z m 268 313 l 268 679 l 510 679 b 697 500 631 679 697 608 b 508 313 697 367 631 313 z "},"Q":{"ha":1099,"x_min":0,"x_max":0,"o":"m 993 500 b 528 1006 993 799 814 1006 b 64 500 243 1006 64 799 b 528 -21 64 190 243 -21 b 788 57 631 -21 717 7 l 846 0 l 1026 0 l 885 143 b 993 500 954 233 993 356 z m 226 499 b 528 872 226 739 358 872 b 829 499 699 872 829 739 b 767 261 829 400 806 321 b 736 292 756 271 746 282 l 624 404 l 526 313 l 678 164 b 528 114 635 131 583 114 b 226 499 358 114 226 263 z "},"R":{"ha":960,"x_min":0,"x_max":0,"o":"m 111 0 l 268 0 l 268 421 l 538 421 b 664 332 618 421 649 394 l 743 0 l 914 0 l 914 8 b 860 185 896 43 879 111 l 814 365 b 683 465 800 418 757 463 b 868 718 772 492 868 578 b 581 989 868 901 747 989 l 111 989 z m 268 549 b 268 863 268 549 268 863 l 535 863 b 710 710 631 863 710 821 b 522 549 710 599 629 549 z "},"Ŕ":{"ha":960,"x_min":0,"x_max":0,"o":"m 111 0 l 268 0 l 268 421 l 538 421 b 664 332 618 421 649 394 l 743 0 l 914 0 l 914 8 b 860 185 896 43 879 111 l 814 365 b 683 465 800 418 757 463 b 868 718 772 492 868 578 b 581 989 868 901 747 989 l 111 989 z m 268 549 b 268 863 268 549 268 863 l 535 863 b 710 710 631 863 710 821 b 522 549 710 599 629 549 z m 408 1065 l 514 1065 l 667 1282 l 521 1282 z "},"Ř":{"ha":960,"x_min":0,"x_max":0,"o":"m 111 0 l 268 0 l 268 421 l 538 421 b 664 332 618 421 649 394 l 743 0 l 914 0 l 914 8 b 860 185 896 43 879 111 l 814 365 b 683 465 800 418 757 463 b 868 718 772 492 868 578 b 581 989 868 901 747 989 l 111 989 z m 222 1282 l 386 1065 l 574 1065 l 739 1282 l 618 1282 l 482 1133 l 481 1133 l 343 1282 z m 268 549 b 268 863 268 549 268 863 l 535 863 b 710 710 631 863 710 821 b 522 549 710 599 629 549 z "},"Ŗ":{"ha":960,"x_min":0,"x_max":0,"o":"m 111 0 l 268 0 l 268 421 l 538 421 b 664 332 618 421 649 394 l 743 0 l 914 0 l 914 8 b 860 185 896 43 879 111 l 814 365 b 683 465 800 418 757 463 b 868 718 772 492 868 578 b 581 989 868 901 747 989 l 111 989 z m 268 549 b 268 863 268 549 268 863 l 535 863 b 710 710 631 863 710 821 b 522 549 710 599 629 549 z m 379 -386 b 453 -385 403 -390 425 -390 b 585 -210 528 -371 585 -300 b 481 -83 585 -140 551 -83 b 394 -168 428 -83 394 -122 b 485 -240 394 -218 438 -244 b 379 -328 486 -299 442 -336 z "},"S":{"ha":900,"x_min":0,"x_max":0,"o":"m 56 315 b 460 -19 56 83 233 -19 b 844 274 682 -19 844 81 b 575 554 844 429 747 510 l 428 593 b 235 742 308 622 235 658 b 433 878 235 819 310 878 b 658 704 586 878 658 818 l 821 704 b 442 1008 813 924 661 1008 b 74 726 210 1008 74 894 b 318 468 74 586 167 507 l 517 414 b 683 260 622 388 683 343 b 463 113 683 165 597 113 b 221 315 317 113 222 172 z "},"Ś":{"ha":900,"x_min":0,"x_max":0,"o":"m 56 315 b 460 -19 56 83 233 -19 b 844 274 682 -19 844 81 b 575 554 844 429 747 510 l 428 593 b 235 742 308 622 235 658 b 433 878 235 819 310 878 b 658 704 586 878 658 818 l 821 704 b 442 1008 813 924 661 1008 b 74 726 210 1008 74 894 b 318 468 74 586 167 507 l 517 414 b 683 260 622 388 683 343 b 463 113 683 165 597 113 b 221 315 317 113 222 172 z m 378 1065 l 483 1065 l 636 1282 l 490 1282 z "},"Š":{"ha":900,"x_min":0,"x_max":0,"o":"m 56 315 b 460 -19 56 83 233 -19 b 844 274 682 -19 844 81 b 575 554 844 429 747 510 l 428 593 b 235 742 308 622 235 658 b 433 878 235 819 310 878 b 658 704 586 878 658 818 l 821 704 b 442 1008 813 924 661 1008 b 74 726 210 1008 74 894 b 318 468 74 586 167 507 l 517 414 b 683 260 622 388 683 343 b 463 113 683 165 597 113 b 221 315 317 113 222 172 z m 192 1282 l 356 1065 l 543 1065 l 708 1282 l 588 1282 l 451 1133 l 450 1133 l 313 1282 z "},"Ş":{"ha":900,"x_min":0,"x_max":0,"o":"m 56 315 b 404 -17 56 103 204 -1 l 360 -104 l 406 -140 b 463 -126 424 -131 444 -126 b 525 -178 503 -126 525 -147 b 456 -235 525 -217 492 -235 b 374 -187 417 -235 390 -211 l 303 -218 b 458 -308 333 -281 397 -308 b 615 -176 558 -308 615 -246 b 507 -62 615 -114 571 -69 b 464 -67 492 -62 478 -62 l 490 -19 b 844 274 696 -10 844 89 b 575 554 844 429 747 510 l 428 593 b 235 742 308 622 235 658 b 433 878 235 819 310 878 b 658 704 586 878 658 818 l 821 704 b 442 1008 813 924 661 1008 b 74 726 210 1008 74 894 b 318 468 74 586 167 507 l 517 414 b 683 260 622 388 683 343 b 463 113 683 165 597 113 b 221 315 317 113 222 172 z "},"Ŝ":{"ha":900,"x_min":0,"x_max":0,"o":"m 56 315 b 460 -19 56 83 233 -19 b 844 274 682 -19 844 81 b 575 554 844 429 747 510 l 428 593 b 235 742 308 622 235 658 b 433 878 235 819 310 878 b 658 704 586 878 658 818 l 821 704 b 442 1008 813 924 661 1008 b 74 726 210 1008 74 894 b 318 468 74 586 167 507 l 517 414 b 683 260 622 388 683 343 b 463 113 683 165 597 113 b 221 315 317 113 222 172 z m 193 1065 l 317 1065 l 451 1214 l 585 1065 l 708 1065 l 544 1282 l 357 1282 z "},"Ș":{"ha":900,"x_min":0,"x_max":0,"o":"m 56 315 b 460 -19 56 83 233 -19 b 844 274 682 -19 844 81 b 575 554 844 429 747 510 l 428 593 b 235 742 308 622 235 658 b 433 878 235 819 310 878 b 658 704 586 878 658 818 l 821 704 b 442 1008 813 924 661 1008 b 74 726 210 1008 74 894 b 318 468 74 586 167 507 l 517 414 b 683 260 622 388 683 343 b 463 113 683 165 597 113 b 221 315 317 113 222 172 z m 350 -386 b 424 -385 374 -390 396 -390 b 556 -210 499 -371 556 -300 b 451 -83 556 -140 522 -83 b 365 -168 399 -83 365 -122 b 456 -240 365 -218 408 -244 b 350 -328 457 -299 413 -336 z "},"ẞ":{"ha":960,"x_min":0,"x_max":0,"o":"m 557 989 l 111 989 l 111 0 l 268 0 l 268 857 l 544 857 b 713 708 650 857 713 793 b 522 553 713 617 653 553 l 413 553 l 413 439 l 517 439 b 728 281 651 439 728 385 b 540 110 728 171 656 110 b 383 136 497 110 451 118 l 383 -1 b 549 -24 428 -12 493 -24 b 892 257 754 -24 892 79 b 715 496 892 378 828 456 b 871 731 824 542 871 614 b 557 989 871 879 753 989 z "},"T":{"ha":960,"x_min":0,"x_max":0,"o":"m 24 989 l 24 857 l 401 857 l 401 0 l 558 0 l 558 857 l 938 857 l 938 989 z "},"Ť":{"ha":960,"x_min":0,"x_max":0,"o":"m 24 989 l 24 857 l 401 857 l 401 0 l 558 0 l 558 857 l 938 857 l 938 989 z m 222 1282 l 386 1065 l 574 1065 l 739 1282 l 618 1282 l 482 1133 l 481 1133 l 343 1282 z "},"Ţ":{"ha":960,"x_min":0,"x_max":0,"o":"m 24 989 l 24 857 l 401 857 l 401 0 l 439 0 l 386 -104 l 435 -140 b 492 -126 453 -131 474 -126 b 554 -178 532 -126 554 -147 b 485 -235 554 -217 521 -235 b 403 -187 446 -235 419 -211 l 332 -218 b 488 -308 363 -281 426 -308 b 644 -176 588 -308 644 -246 b 536 -62 644 -114 600 -69 b 494 -67 521 -62 508 -62 l 531 0 l 558 0 l 558 857 l 938 857 l 938 989 z "},"Ț":{"ha":960,"x_min":0,"x_max":0,"o":"m 24 989 l 24 857 l 401 857 l 401 0 l 558 0 l 558 857 l 938 857 l 938 989 z m 379 -386 b 453 -385 403 -390 425 -390 b 585 -210 528 -371 585 -300 b 481 -83 585 -140 551 -83 b 394 -168 428 -83 394 -122 b 485 -240 394 -218 438 -244 b 379 -328 486 -299 442 -336 z "},"U":{"ha":908,"x_min":0,"x_max":0,"o":"m 842 408 l 842 989 l 683 989 l 683 372 b 454 111 683 201 601 111 b 225 372 307 111 225 201 l 225 989 l 67 989 l 67 408 b 454 -15 67 174 144 -15 b 842 408 764 -15 842 174 z "},"Ú":{"ha":908,"x_min":0,"x_max":0,"o":"m 842 408 l 842 989 l 683 989 l 683 372 b 454 111 683 201 601 111 b 225 372 307 111 225 201 l 225 989 l 67 989 l 67 408 b 454 -15 67 174 144 -15 b 842 408 764 -15 842 174 z m 382 1065 l 488 1065 l 640 1282 l 494 1282 z "},"Ŭ":{"ha":908,"x_min":0,"x_max":0,"o":"m 842 408 l 842 989 l 683 989 l 683 372 b 454 111 683 201 601 111 b 225 372 307 111 225 201 l 225 989 l 67 989 l 67 408 b 454 -15 67 174 144 -15 b 842 408 764 -15 842 174 z m 239 1271 b 454 1057 240 1131 340 1057 b 669 1271 568 1057 668 1131 l 568 1271 b 454 1147 567 1185 519 1147 b 340 1271 389 1147 342 1185 z "},"Û":{"ha":908,"x_min":0,"x_max":0,"o":"m 842 408 l 842 989 l 683 989 l 683 372 b 454 111 683 201 601 111 b 225 372 307 111 225 201 l 225 989 l 67 989 l 67 408 b 454 -15 67 174 144 -15 b 842 408 764 -15 842 174 z m 197 1065 l 321 1065 l 456 1214 l 589 1065 l 713 1065 l 549 1282 l 361 1282 z "},"Ü":{"ha":908,"x_min":0,"x_max":0,"o":"m 842 408 l 842 989 l 683 989 l 683 372 b 454 111 683 201 601 111 b 225 372 307 111 225 201 l 225 989 l 67 989 l 67 408 b 454 -15 67 174 144 -15 b 842 408 764 -15 842 174 z m 215 1197 b 297 1115 215 1154 253 1115 b 376 1197 340 1115 376 1154 b 297 1278 376 1240 340 1278 b 215 1197 253 1278 215 1240 z m 532 1197 b 613 1115 532 1154 568 1115 b 692 1197 656 1115 692 1154 b 613 1278 692 1240 656 1278 b 532 1197 568 1278 532 1240 z "},"Ù":{"ha":908,"x_min":0,"x_max":0,"o":"m 842 408 l 842 989 l 683 989 l 683 372 b 454 111 683 201 601 111 b 225 372 307 111 225 201 l 225 989 l 67 989 l 67 408 b 454 -15 67 174 144 -15 b 842 408 764 -15 842 174 z m 267 1282 l 419 1065 l 525 1065 l 413 1282 z "},"Ű":{"ha":908,"x_min":0,"x_max":0,"o":"m 842 408 l 842 989 l 683 989 l 683 372 b 454 111 683 201 601 111 b 225 372 307 111 225 201 l 225 989 l 67 989 l 67 408 b 454 -15 67 174 144 -15 b 842 408 764 -15 842 174 z m 261 1065 l 364 1065 l 538 1282 l 399 1282 z m 460 1065 l 563 1065 l 736 1282 l 597 1282 z "},"Ū":{"ha":908,"x_min":0,"x_max":0,"o":"m 842 408 l 842 989 l 683 989 l 683 372 b 454 111 683 201 601 111 b 225 372 307 111 225 201 l 225 989 l 67 989 l 67 408 b 454 -15 67 174 144 -15 b 842 408 764 -15 842 174 z m 294 1143 l 613 1143 l 613 1228 l 294 1228 z "},"Ų":{"ha":908,"x_min":0,"x_max":0,"o":"m 842 408 l 842 989 l 683 989 l 683 372 b 454 111 683 201 601 111 b 225 372 307 111 225 201 l 225 989 l 67 989 l 67 408 b 454 -15 67 174 144 -15 l 475 -15 b 378 -182 422 -60 378 -118 b 508 -300 378 -249 435 -300 b 629 -268 544 -300 599 -290 l 629 -197 b 567 -218 604 -212 585 -218 b 510 -158 533 -218 510 -193 b 622 8 510 -107 561 -42 b 842 408 793 67 842 224 z "},"Ů":{"ha":908,"x_min":0,"x_max":0,"o":"m 842 408 l 842 989 l 683 989 l 683 372 b 454 111 683 201 601 111 b 225 372 307 111 225 201 l 225 989 l 67 989 l 67 408 b 454 -15 67 174 144 -15 b 842 408 764 -15 842 174 z m 292 1221 b 454 1383 292 1310 364 1383 b 617 1221 542 1383 617 1310 b 454 1060 617 1133 542 1060 b 292 1221 364 1060 292 1133 z m 379 1221 b 454 1146 379 1179 413 1146 b 529 1221 494 1146 529 1179 b 454 1297 529 1264 494 1297 b 379 1221 413 1297 379 1264 z "},"Ũ":{"ha":908,"x_min":0,"x_max":0,"o":"m 842 408 l 842 989 l 683 989 l 683 372 b 454 111 683 201 601 111 b 225 372 307 111 225 201 l 225 989 l 67 989 l 67 408 b 454 -15 67 174 144 -15 b 842 408 764 -15 842 174 z m 178 1057 l 282 1057 l 282 1086 b 347 1160 282 1129 304 1160 b 440 1117 381 1160 407 1139 b 576 1063 482 1086 524 1063 b 732 1222 661 1063 732 1126 l 732 1265 l 628 1265 l 628 1236 b 561 1163 628 1189 606 1163 b 469 1207 529 1163 503 1183 b 333 1260 428 1236 386 1260 b 178 1094 249 1260 178 1194 z "},"V":{"ha":964,"x_min":0,"x_max":0,"o":"m 397 0 l 567 0 l 933 989 l 758 989 l 482 189 l 206 989 l 31 989 z "},"W":{"ha":1531,"x_min":0,"x_max":0,"o":"m 339 0 l 532 0 l 765 778 l 999 0 l 1192 0 l 1500 989 l 1328 989 l 1094 157 l 850 989 l 681 989 l 436 158 l 204 989 l 31 989 z "},"Ẃ":{"ha":1531,"x_min":0,"x_max":0,"o":"m 339 0 l 532 0 l 765 778 l 999 0 l 1192 0 l 1500 989 l 1328 989 l 1094 157 l 850 989 l 681 989 l 436 158 l 204 989 l 31 989 z m 693 1065 l 799 1065 l 951 1282 l 806 1282 z "},"Ŵ":{"ha":1531,"x_min":0,"x_max":0,"o":"m 339 0 l 532 0 l 765 778 l 999 0 l 1192 0 l 1500 989 l 1328 989 l 1094 157 l 850 989 l 681 989 l 436 158 l 204 989 l 31 989 z m 508 1065 l 632 1065 l 767 1214 l 900 1065 l 1024 1065 l 860 1282 l 672 1282 z "},"Ẅ":{"ha":1531,"x_min":0,"x_max":0,"o":"m 339 0 l 532 0 l 765 778 l 999 0 l 1192 0 l 1500 989 l 1328 989 l 1094 157 l 850 989 l 681 989 l 436 158 l 204 989 l 31 989 z m 526 1197 b 608 1115 526 1154 564 1115 b 688 1197 651 1115 688 1154 b 608 1278 688 1240 651 1278 b 526 1197 564 1278 526 1240 z m 843 1197 b 924 1115 843 1154 879 1115 b 1003 1197 967 1115 1003 1154 b 924 1278 1003 1240 967 1278 b 843 1197 879 1278 843 1240 z "},"Ẁ":{"ha":1531,"x_min":0,"x_max":0,"o":"m 339 0 l 532 0 l 765 778 l 999 0 l 1192 0 l 1500 989 l 1328 989 l 1094 157 l 850 989 l 681 989 l 436 158 l 204 989 l 31 989 z m 578 1282 l 731 1065 l 836 1065 l 724 1282 z "},"X":{"ha":990,"x_min":0,"x_max":0,"o":"m 42 0 l 235 0 l 494 369 l 756 0 l 949 0 l 589 497 l 943 989 l 750 989 l 496 626 l 240 989 l 47 989 l 401 497 z "},"Y":{"ha":928,"x_min":0,"x_max":0,"o":"m 386 374 l 386 0 l 543 0 l 543 374 l 885 989 l 711 989 l 464 525 l 218 989 l 43 989 z "},"Ý":{"ha":928,"x_min":0,"x_max":0,"o":"m 386 374 l 386 0 l 543 0 l 543 374 l 885 989 l 711 989 l 464 525 l 218 989 l 43 989 z m 400 1065 l 506 1065 l 658 1282 l 513 1282 z "},"Ŷ":{"ha":928,"x_min":0,"x_max":0,"o":"m 386 374 l 386 0 l 543 0 l 543 374 l 885 989 l 711 989 l 464 525 l 218 989 l 43 989 z m 215 1065 l 339 1065 l 474 1214 l 607 1065 l 731 1065 l 567 1282 l 379 1282 z "},"Ÿ":{"ha":928,"x_min":0,"x_max":0,"o":"m 386 374 l 386 0 l 543 0 l 543 374 l 885 989 l 711 989 l 464 525 l 218 989 l 43 989 z m 233 1197 b 315 1115 233 1154 271 1115 b 394 1197 358 1115 394 1154 b 315 1278 394 1240 358 1278 b 233 1197 271 1278 233 1240 z m 550 1197 b 631 1115 550 1154 586 1115 b 710 1197 674 1115 710 1154 b 631 1278 710 1240 674 1278 b 550 1197 586 1278 550 1240 z "},"Ỳ":{"ha":928,"x_min":0,"x_max":0,"o":"m 386 374 l 386 0 l 543 0 l 543 374 l 885 989 l 711 989 l 464 525 l 218 989 l 43 989 z m 285 1282 l 438 1065 l 543 1065 l 431 1282 z "},"Ỹ":{"ha":928,"x_min":0,"x_max":0,"o":"m 386 374 l 386 0 l 543 0 l 543 374 l 885 989 l 711 989 l 464 525 l 218 989 l 43 989 z m 196 1057 l 300 1057 l 300 1086 b 365 1160 300 1129 322 1160 b 458 1117 399 1160 425 1139 b 594 1063 500 1086 542 1063 b 750 1222 679 1063 750 1126 l 750 1265 l 646 1265 l 646 1236 b 579 1163 646 1189 624 1163 b 488 1207 547 1163 521 1183 b 351 1260 446 1236 404 1260 b 196 1094 267 1260 196 1194 z "},"Z":{"ha":833,"x_min":0,"x_max":0,"o":"m 47 858 l 608 858 l 47 131 l 47 0 l 788 0 l 788 131 l 225 131 l 788 857 l 788 989 l 47 989 z "},"Ź":{"ha":833,"x_min":0,"x_max":0,"o":"m 47 858 l 608 858 l 47 131 l 47 0 l 788 0 l 788 131 l 225 131 l 788 857 l 788 989 l 47 989 z m 339 1065 l 444 1065 l 597 1282 l 451 1282 z "},"Ž":{"ha":833,"x_min":0,"x_max":0,"o":"m 47 858 l 608 858 l 47 131 l 47 0 l 788 0 l 788 131 l 225 131 l 788 857 l 788 989 l 47 989 z m 153 1282 l 317 1065 l 504 1065 l 669 1282 l 549 1282 l 413 1133 l 411 1133 l 274 1282 z "},"Ż":{"ha":833,"x_min":0,"x_max":0,"o":"m 47 858 l 608 858 l 47 131 l 47 0 l 788 0 l 788 131 l 225 131 l 788 857 l 788 989 l 47 989 z m 318 1229 b 413 1135 318 1179 363 1135 b 506 1229 463 1135 506 1179 b 413 1324 506 1279 463 1324 b 318 1229 363 1324 318 1279 z "},"a":{"ha":758,"x_min":0,"x_max":0,"o":"m 271 -17 b 518 143 388 -17 471 50 b 521 147 519 144 519 146 l 521 110 b 536 0 524 69 528 28 l 686 0 l 686 7 b 671 172 675 40 671 93 l 671 457 b 356 714 671 608 563 714 b 58 467 176 714 63 619 l 206 467 b 357 608 210 572 276 608 b 518 478 461 608 518 556 l 518 454 l 269 400 b 51 174 138 372 51 296 b 271 -17 51 47 151 -17 z m 208 182 b 329 308 208 244 247 288 l 519 361 l 519 336 b 317 82 519 193 431 82 b 208 182 258 82 208 117 z "},"á":{"ha":758,"x_min":0,"x_max":0,"o":"m 271 -17 b 518 143 388 -17 471 50 b 521 147 519 144 519 146 l 521 110 b 536 0 524 69 528 28 l 686 0 l 686 7 b 671 172 675 40 671 93 l 671 457 b 356 714 671 608 563 714 b 58 467 176 714 63 619 l 206 467 b 357 608 210 572 276 608 b 518 478 461 608 518 556 l 518 454 l 269 400 b 51 174 138 372 51 296 b 271 -17 51 47 151 -17 z m 208 182 b 329 308 208 244 247 288 l 519 361 l 519 336 b 317 82 519 193 431 82 b 208 182 258 82 208 117 z m 296 771 l 401 771 l 554 988 l 408 988 z "},"ă":{"ha":758,"x_min":0,"x_max":0,"o":"m 271 -17 b 518 143 388 -17 471 50 b 521 147 519 144 519 146 l 521 110 b 536 0 524 69 528 28 l 686 0 l 686 7 b 671 172 675 40 671 93 l 671 457 b 356 714 671 608 563 714 b 58 467 176 714 63 619 l 206 467 b 357 608 210 572 276 608 b 518 478 461 608 518 556 l 518 454 l 269 400 b 51 174 138 372 51 296 b 271 -17 51 47 151 -17 z m 153 976 b 368 763 154 836 254 763 b 583 976 482 763 582 836 l 482 976 b 368 853 481 890 433 853 b 254 976 303 853 256 890 z m 208 182 b 329 308 208 244 247 288 l 519 361 l 519 336 b 317 82 519 193 431 82 b 208 182 258 82 208 117 z "},"ǎ":{"ha":758,"x_min":0,"x_max":0,"o":"m 271 -17 b 518 143 388 -17 471 50 b 521 147 519 144 519 146 l 521 110 b 536 0 524 69 528 28 l 686 0 l 686 7 b 671 172 675 40 671 93 l 671 457 b 356 714 671 608 563 714 b 58 467 176 714 63 619 l 206 467 b 357 608 210 572 276 608 b 518 478 461 608 518 556 l 518 454 l 269 400 b 51 174 138 372 51 296 b 271 -17 51 47 151 -17 z m 110 988 l 274 771 l 461 771 l 626 988 l 506 988 l 369 839 l 368 839 l 231 988 z m 208 182 b 329 308 208 244 247 288 l 519 361 l 519 336 b 317 82 519 193 431 82 b 208 182 258 82 208 117 z "},"â":{"ha":758,"x_min":0,"x_max":0,"o":"m 271 -17 b 518 143 388 -17 471 50 b 521 147 519 144 519 146 l 521 110 b 536 0 524 69 528 28 l 686 0 l 686 7 b 671 172 675 40 671 93 l 671 457 b 356 714 671 608 563 714 b 58 467 176 714 63 619 l 206 467 b 357 608 210 572 276 608 b 518 478 461 608 518 556 l 518 454 l 269 400 b 51 174 138 372 51 296 b 271 -17 51 47 151 -17 z m 111 771 l 235 771 l 369 919 l 503 771 l 626 771 l 463 988 l 275 988 z m 208 182 b 329 308 208 244 247 288 l 519 361 l 519 336 b 317 82 519 193 431 82 b 208 182 258 82 208 117 z "},"ä":{"ha":758,"x_min":0,"x_max":0,"o":"m 271 -17 b 518 143 388 -17 471 50 b 521 147 519 144 519 146 l 521 110 b 536 0 524 69 528 28 l 686 0 l 686 7 b 671 172 675 40 671 93 l 671 457 b 356 714 671 608 563 714 b 58 467 176 714 63 619 l 206 467 b 357 608 210 572 276 608 b 518 478 461 608 518 556 l 518 454 l 269 400 b 51 174 138 372 51 296 b 271 -17 51 47 151 -17 z m 129 903 b 211 821 129 860 167 821 b 290 903 254 821 290 860 b 211 983 290 946 254 983 b 129 903 167 983 129 946 z m 208 182 b 329 308 208 244 247 288 l 519 361 l 519 336 b 317 82 519 193 431 82 b 208 182 258 82 208 117 z m 446 903 b 526 821 446 860 482 821 b 606 903 569 821 606 860 b 526 983 606 946 569 983 b 446 903 482 983 446 946 z "},"à":{"ha":758,"x_min":0,"x_max":0,"o":"m 271 -17 b 518 143 388 -17 471 50 b 521 147 519 144 519 146 l 521 110 b 536 0 524 69 528 28 l 686 0 l 686 7 b 671 172 675 40 671 93 l 671 457 b 356 714 671 608 563 714 b 58 467 176 714 63 619 l 206 467 b 357 608 210 572 276 608 b 518 478 461 608 518 556 l 518 454 l 269 400 b 51 174 138 372 51 296 b 271 -17 51 47 151 -17 z m 181 988 l 333 771 l 439 771 l 326 988 z m 208 182 b 329 308 208 244 247 288 l 519 361 l 519 336 b 317 82 519 193 431 82 b 208 182 258 82 208 117 z "},"ā":{"ha":758,"x_min":0,"x_max":0,"o":"m 271 -17 b 518 143 388 -17 471 50 b 521 147 519 144 519 146 l 521 110 b 536 0 524 69 528 28 l 686 0 l 686 7 b 671 172 675 40 671 93 l 671 457 b 356 714 671 608 563 714 b 58 467 176 714 63 619 l 206 467 b 357 608 210 572 276 608 b 518 478 461 608 518 556 l 518 454 l 269 400 b 51 174 138 372 51 296 b 271 -17 51 47 151 -17 z m 208 182 b 329 308 208 244 247 288 l 519 361 l 519 336 b 317 82 519 193 431 82 b 208 182 258 82 208 117 z m 208 849 l 526 849 l 526 933 l 208 933 z "},"ą":{"ha":758,"x_min":0,"x_max":0,"o":"m 271 -17 b 518 143 388 -17 471 50 b 521 147 519 144 519 146 l 521 110 b 536 0 524 69 528 28 l 571 0 b 436 -196 504 -46 436 -117 b 567 -314 436 -262 493 -314 b 688 -282 603 -314 657 -304 l 688 -211 b 625 -232 663 -226 643 -232 b 568 -172 592 -232 568 -207 b 686 0 568 -119 622 -51 l 686 7 b 671 172 675 40 671 93 l 671 457 b 356 714 671 608 563 714 b 58 467 176 714 63 619 l 206 467 b 357 608 210 572 276 608 b 518 478 461 608 518 556 l 518 454 l 269 400 b 51 174 138 372 51 296 b 271 -17 51 47 151 -17 z m 208 182 b 329 308 208 244 247 288 l 519 361 l 519 336 b 317 82 519 193 431 82 b 208 182 258 82 208 117 z "},"å":{"ha":758,"x_min":0,"x_max":0,"o":"m 271 -17 b 518 143 388 -17 471 50 b 521 147 519 144 519 146 l 521 110 b 536 0 524 69 528 28 l 686 0 l 686 7 b 671 172 675 40 671 93 l 671 457 b 356 714 671 608 563 714 b 58 467 176 714 63 619 l 206 467 b 357 608 210 572 276 608 b 518 478 461 608 518 556 l 518 454 l 269 400 b 51 174 138 372 51 296 b 271 -17 51 47 151 -17 z m 204 926 b 367 1089 204 1015 276 1089 b 529 926 454 1089 529 1015 b 367 765 529 839 454 765 b 204 926 276 765 204 839 z m 208 182 b 329 308 208 244 247 288 l 519 361 l 519 336 b 317 82 519 193 431 82 b 208 182 258 82 208 117 z m 292 926 b 367 851 292 885 325 851 b 442 926 407 851 442 885 b 367 1003 442 969 407 1003 b 292 926 325 1003 292 969 z "},"ã":{"ha":758,"x_min":0,"x_max":0,"o":"m 271 -17 b 518 143 388 -17 471 50 b 521 147 519 144 519 146 l 521 110 b 536 0 524 69 528 28 l 686 0 l 686 7 b 671 172 675 40 671 93 l 671 457 b 356 714 671 608 563 714 b 58 467 176 714 63 619 l 206 467 b 357 608 210 572 276 608 b 518 478 461 608 518 556 l 518 454 l 269 400 b 51 174 138 372 51 296 b 271 -17 51 47 151 -17 z m 92 763 l 196 763 l 196 792 b 261 865 196 835 218 865 b 354 822 294 865 321 844 b 490 768 396 792 438 768 b 646 928 575 768 646 832 l 646 971 l 542 971 l 542 942 b 475 868 542 894 519 868 b 383 913 443 868 417 889 b 247 965 342 942 300 965 b 92 800 163 965 92 900 z m 208 182 b 329 308 208 244 247 288 l 519 361 l 519 336 b 317 82 519 193 431 82 b 208 182 258 82 208 117 z "},"æ":{"ha":1246,"x_min":0,"x_max":0,"o":"m 874 -19 b 1181 226 1029 -19 1154 64 l 1022 226 b 874 99 1006 138 943 99 b 689 328 754 99 690 203 l 1183 328 b 1183 382 1185 350 1186 360 b 869 714 1176 586 1053 714 b 621 589 763 714 683 672 b 364 714 575 672 489 714 b 65 467 183 714 71 619 l 213 467 b 364 608 218 572 283 608 b 526 478 469 608 526 556 l 526 454 l 276 400 b 58 174 146 372 58 296 b 279 -17 58 47 160 -17 b 556 161 392 -17 503 39 l 564 181 b 874 -19 613 57 719 -19 z m 217 182 b 336 308 217 244 254 288 l 526 361 l 526 336 b 324 82 526 193 438 82 b 217 182 265 82 217 117 z m 693 421 b 693 421 694 422 693 421 b 869 596 699 531 776 596 b 1025 421 947 596 1019 543 z "},"b":{"ha":799,"x_min":0,"x_max":0,"o":"m 449 -24 b 743 344 610 -24 743 106 b 446 713 743 576 610 713 b 239 615 354 713 282 669 b 239 615 239 614 239 614 l 239 989 l 88 989 l 88 0 l 233 0 l 236 81 b 449 -24 288 17 363 -24 z m 233 343 b 413 596 233 506 299 596 b 589 343 506 596 589 514 b 413 93 589 172 513 93 b 233 343 299 93 233 179 z "},"c":{"ha":758,"x_min":0,"x_max":0,"o":"m 401 -19 b 707 226 556 -19 679 63 l 551 226 b 401 99 536 138 471 99 b 214 344 286 99 214 200 b 403 596 214 508 300 596 b 551 465 481 596 535 557 l 707 465 b 403 714 693 621 565 714 b 56 344 200 714 56 564 b 401 -19 56 132 189 -19 z "},"ć":{"ha":758,"x_min":0,"x_max":0,"o":"m 401 -19 b 707 226 556 -19 679 63 l 551 226 b 401 99 536 138 471 99 b 214 344 286 99 214 200 b 403 596 214 508 300 596 b 551 465 481 596 535 557 l 707 465 b 403 714 693 621 565 714 b 56 344 200 714 56 564 b 401 -19 56 132 189 -19 z m 319 771 l 425 771 l 578 988 l 432 988 z "},"č":{"ha":758,"x_min":0,"x_max":0,"o":"m 401 -19 b 707 226 556 -19 679 63 l 551 226 b 401 99 536 138 471 99 b 214 344 286 99 214 200 b 403 596 214 508 300 596 b 551 465 481 596 535 557 l 707 465 b 403 714 693 621 565 714 b 56 344 200 714 56 564 b 401 -19 56 132 189 -19 z m 133 988 l 297 771 l 485 771 l 650 988 l 529 988 l 393 839 l 392 839 l 254 988 z "},"ç":{"ha":758,"x_min":0,"x_max":0,"o":"m 406 -67 l 432 -18 b 707 226 572 -8 681 74 l 551 226 b 401 99 536 138 471 99 b 214 344 286 99 214 200 b 403 596 214 508 300 596 b 551 465 481 596 535 557 l 707 465 b 403 714 693 621 565 714 b 56 344 200 714 56 564 b 346 -15 56 151 167 8 l 301 -104 l 347 -140 b 404 -126 365 -131 386 -126 b 467 -178 444 -126 467 -147 b 397 -235 467 -217 433 -235 b 315 -187 358 -235 332 -211 l 244 -218 b 400 -308 275 -281 339 -308 b 557 -176 500 -308 557 -246 b 449 -62 557 -114 513 -69 b 406 -67 433 -62 419 -62 z "},"ĉ":{"ha":758,"x_min":0,"x_max":0,"o":"m 401 -19 b 707 226 556 -19 679 63 l 551 226 b 401 99 536 138 471 99 b 214 344 286 99 214 200 b 403 596 214 508 300 596 b 551 465 481 596 535 557 l 707 465 b 403 714 693 621 565 714 b 56 344 200 714 56 564 b 401 -19 56 132 189 -19 z m 135 771 l 258 771 l 393 919 l 526 771 l 650 771 l 486 988 l 299 988 z "},"ċ":{"ha":758,"x_min":0,"x_max":0,"o":"m 401 -19 b 707 226 556 -19 679 63 l 551 226 b 401 99 536 138 471 99 b 214 344 286 99 214 200 b 403 596 214 508 300 596 b 551 465 481 596 535 557 l 707 465 b 403 714 693 621 565 714 b 56 344 200 714 56 564 b 401 -19 56 132 189 -19 z m 297 935 b 392 840 297 885 342 840 b 485 935 442 840 485 885 b 392 1029 485 985 442 1029 b 297 935 342 1029 297 985 z "},"d":{"ha":799,"x_min":0,"x_max":0,"o":"m 351 -24 b 564 81 436 -24 513 17 l 565 0 l 711 0 l 711 989 l 560 989 l 560 615 b 354 713 515 672 442 713 b 56 344 189 713 56 576 b 351 -24 56 106 189 -24 z m 210 343 b 386 596 210 514 294 596 b 565 343 500 596 565 506 b 386 93 565 179 500 93 b 210 343 286 93 210 172 z "},"ð":{"ha":858,"x_min":0,"x_max":0,"o":"m 426 -17 b 785 415 646 -17 783 128 b 639 878 786 588 732 764 l 638 879 l 736 990 l 646 990 l 590 928 b 367 1019 535 976 463 1008 l 321 881 b 492 817 392 876 447 853 l 374 683 l 464 683 l 539 768 b 628 504 593 699 619 603 b 378 624 574 582 481 624 b 79 317 208 624 79 499 b 426 -17 79 113 226 -17 z m 233 306 b 422 506 233 429 311 506 b 625 315 533 506 628 419 b 622 290 624 307 624 299 b 429 100 604 182 539 100 b 233 306 311 100 233 193 z "},"ď":{"ha":799,"x_min":0,"x_max":0,"o":"m 351 -24 b 564 81 436 -24 513 17 l 565 0 l 711 0 l 711 989 l 560 989 l 560 615 b 354 713 515 672 442 713 b 56 344 189 713 56 576 b 351 -24 56 106 189 -24 z m 210 343 b 386 596 210 514 294 596 b 565 343 500 596 565 506 b 386 93 565 179 500 93 b 210 343 286 93 210 172 z m 775 703 b 849 704 799 699 821 699 b 981 879 924 718 981 789 b 876 1006 981 949 947 1006 b 790 921 824 1006 790 967 b 881 849 790 871 833 844 b 775 761 882 790 838 753 z "},"đ":{"ha":783,"x_min":0,"x_max":0,"o":"m 351 -24 b 564 81 436 -24 513 17 l 565 0 l 711 0 l 711 783 l 754 783 l 754 900 l 711 900 l 711 989 l 560 989 l 560 900 l 322 900 l 322 783 l 560 783 l 560 615 b 354 713 515 672 442 713 b 56 344 189 713 56 576 b 351 -24 56 106 189 -24 z m 210 343 b 386 596 210 514 294 596 b 565 343 500 596 565 506 b 386 93 565 179 500 93 b 210 343 286 93 210 172 z "},"e":{"ha":778,"x_min":0,"x_max":0,"o":"m 407 -19 b 708 226 563 -19 681 64 l 549 226 b 401 99 533 138 471 99 b 215 328 282 99 217 203 l 714 328 b 715 382 715 350 717 360 b 396 714 707 586 581 714 b 56 353 188 714 56 565 b 407 -19 56 133 188 -19 z m 221 419 l 221 421 b 396 594 228 531 304 594 b 553 419 474 594 547 542 z "},"é":{"ha":778,"x_min":0,"x_max":0,"o":"m 407 -19 b 708 226 563 -19 681 64 l 549 226 b 401 99 533 138 471 99 b 215 328 282 99 217 203 l 714 328 b 715 382 715 350 717 360 b 396 714 707 586 581 714 b 56 353 188 714 56 565 b 407 -19 56 133 188 -19 z m 221 419 l 221 421 b 396 594 228 531 304 594 b 553 419 474 594 547 542 z m 314 771 l 419 771 l 572 988 l 426 988 z "},"ě":{"ha":778,"x_min":0,"x_max":0,"o":"m 407 -19 b 708 226 563 -19 681 64 l 549 226 b 401 99 533 138 471 99 b 215 328 282 99 217 203 l 714 328 b 715 382 715 350 717 360 b 396 714 707 586 581 714 b 56 353 188 714 56 565 b 407 -19 56 133 188 -19 z m 128 988 l 292 771 l 479 771 l 644 988 l 524 988 l 388 839 l 386 839 l 249 988 z m 221 419 l 221 421 b 396 594 228 531 304 594 b 553 419 474 594 547 542 z "},"ê":{"ha":778,"x_min":0,"x_max":0,"o":"m 407 -19 b 708 226 563 -19 681 64 l 549 226 b 401 99 533 138 471 99 b 215 328 282 99 217 203 l 714 328 b 715 382 715 350 717 360 b 396 714 707 586 581 714 b 56 353 188 714 56 565 b 407 -19 56 133 188 -19 z m 129 771 l 253 771 l 388 919 l 521 771 l 644 771 l 481 988 l 293 988 z m 221 419 l 221 421 b 396 594 228 531 304 594 b 553 419 474 594 547 542 z "},"ë":{"ha":778,"x_min":0,"x_max":0,"o":"m 407 -19 b 708 226 563 -19 681 64 l 549 226 b 401 99 533 138 471 99 b 215 328 282 99 217 203 l 714 328 b 715 382 715 350 717 360 b 396 714 707 586 581 714 b 56 353 188 714 56 565 b 407 -19 56 133 188 -19 z m 147 903 b 229 821 147 860 185 821 b 308 903 272 821 308 860 b 229 983 308 946 272 983 b 147 903 185 983 147 946 z m 221 419 l 221 421 b 396 594 228 531 304 594 b 553 419 474 594 547 542 z m 464 903 b 544 821 464 860 500 821 b 624 903 588 821 624 860 b 544 983 624 946 588 983 b 464 903 500 983 464 946 z "},"ė":{"ha":778,"x_min":0,"x_max":0,"o":"m 407 -19 b 708 226 563 -19 681 64 l 549 226 b 401 99 533 138 471 99 b 215 328 282 99 217 203 l 714 328 b 715 382 715 350 717 360 b 396 714 707 586 581 714 b 56 353 188 714 56 565 b 407 -19 56 133 188 -19 z m 221 419 l 221 421 b 396 594 228 531 304 594 b 553 419 474 594 547 542 z m 292 935 b 386 840 292 885 336 840 b 479 935 436 840 479 885 b 386 1029 479 985 436 1029 b 292 935 336 1029 292 985 z "},"è":{"ha":778,"x_min":0,"x_max":0,"o":"m 407 -19 b 708 226 563 -19 681 64 l 549 226 b 401 99 533 138 471 99 b 215 328 282 99 217 203 l 714 328 b 715 382 715 350 717 360 b 396 714 707 586 581 714 b 56 353 188 714 56 565 b 407 -19 56 133 188 -19 z m 199 988 l 351 771 l 457 771 l 344 988 z m 221 419 l 221 421 b 396 594 228 531 304 594 b 553 419 474 594 547 542 z "},"ē":{"ha":778,"x_min":0,"x_max":0,"o":"m 407 -19 b 708 226 563 -19 681 64 l 549 226 b 401 99 533 138 471 99 b 215 328 282 99 217 203 l 714 328 b 715 382 715 350 717 360 b 396 714 707 586 581 714 b 56 353 188 714 56 565 b 407 -19 56 133 188 -19 z m 221 419 l 221 421 b 396 594 228 531 304 594 b 553 419 474 594 547 542 z m 226 849 l 544 849 l 544 933 l 226 933 z "},"ę":{"ha":778,"x_min":0,"x_max":0,"o":"m 553 419 l 221 419 l 221 421 b 396 594 228 531 304 594 b 553 419 474 594 547 542 z m 56 353 b 393 -19 56 138 182 -12 b 292 -190 339 -64 292 -124 b 422 -308 292 -257 349 -308 b 543 -276 458 -308 513 -299 l 543 -206 b 481 -226 518 -221 499 -226 b 424 -167 447 -226 424 -201 b 542 6 424 -114 478 -46 b 708 226 628 42 689 115 l 549 226 b 401 99 533 138 471 99 b 215 328 282 99 217 203 l 714 328 b 715 382 715 350 717 360 b 396 714 707 586 581 714 b 56 353 188 714 56 565 z "},"ẽ":{"ha":778,"x_min":0,"x_max":0,"o":"m 407 -19 b 708 226 563 -19 681 64 l 549 226 b 401 99 533 138 471 99 b 215 328 282 99 217 203 l 714 328 b 715 382 715 350 717 360 b 396 714 707 586 581 714 b 56 353 188 714 56 565 b 407 -19 56 133 188 -19 z m 110 763 l 214 763 l 214 792 b 279 865 214 835 236 865 b 372 822 313 865 339 844 b 508 768 414 792 456 768 b 664 928 593 768 664 832 l 664 971 l 560 971 l 560 942 b 493 868 560 894 538 868 b 401 913 461 868 435 889 b 265 965 360 942 318 965 b 110 800 181 965 110 900 z m 221 419 l 221 421 b 396 594 228 531 304 594 b 553 419 474 594 547 542 z "},"f":{"ha":476,"x_min":0,"x_max":0,"o":"m 124 579 l 124 0 l 275 0 l 275 578 l 443 578 l 443 694 l 275 694 l 275 799 b 453 890 275 893 343 932 l 453 1001 b 336 1032 421 1022 378 1032 b 124 821 206 1032 124 943 l 124 694 l 24 694 l 24 579 z "},"g":{"ha":779,"x_min":0,"x_max":0,"o":"m 360 -310 b 710 54 568 -310 710 -193 l 710 694 l 557 694 l 557 617 b 349 714 514 676 447 714 b 46 368 175 714 46 579 b 347 15 46 150 174 15 b 557 129 440 15 510 60 l 557 103 l 557 29 b 365 -187 557 -106 497 -187 b 208 -53 288 -187 224 -147 l 57 -53 b 360 -310 72 -224 208 -310 z m 201 367 b 388 604 201 536 286 604 b 560 365 494 604 560 536 b 388 126 560 199 488 126 b 201 367 278 126 201 199 z "},"ğ":{"ha":779,"x_min":0,"x_max":0,"o":"m 360 -310 b 710 54 568 -310 710 -193 l 710 694 l 557 694 l 557 617 b 349 714 514 676 447 714 b 46 368 175 714 46 579 b 347 15 46 150 174 15 b 557 129 440 15 510 60 l 557 103 l 557 29 b 365 -187 557 -106 497 -187 b 208 -53 288 -187 224 -147 l 57 -53 b 360 -310 72 -224 208 -310 z m 171 976 b 386 763 172 836 272 763 b 601 976 500 763 600 836 l 500 976 b 386 853 499 890 451 853 b 272 976 321 853 274 890 z m 201 367 b 388 604 201 536 286 604 b 560 365 494 604 560 536 b 388 126 560 199 488 126 b 201 367 278 126 201 199 z "},"ĝ":{"ha":779,"x_min":0,"x_max":0,"o":"m 360 -310 b 710 54 568 -310 710 -193 l 710 694 l 557 694 l 557 617 b 349 714 514 676 447 714 b 46 368 175 714 46 579 b 347 15 46 150 174 15 b 557 129 440 15 510 60 l 557 103 l 557 29 b 365 -187 557 -106 497 -187 b 208 -53 288 -187 224 -147 l 57 -53 b 360 -310 72 -224 208 -310 z m 131 771 l 254 771 l 389 919 l 522 771 l 646 771 l 482 988 l 294 988 z m 201 367 b 388 604 201 536 286 604 b 560 365 494 604 560 536 b 388 126 560 199 488 126 b 201 367 278 126 201 199 z "},"ģ":{"ha":779,"x_min":0,"x_max":0,"o":"m 360 -310 b 710 54 568 -310 710 -193 l 710 694 l 557 694 l 557 617 b 349 714 514 676 447 714 b 46 368 175 714 46 579 b 347 15 46 150 174 15 b 557 129 440 15 510 60 l 557 103 l 557 29 b 365 -187 557 -106 497 -187 b 208 -53 288 -187 224 -147 l 57 -53 b 360 -310 72 -224 208 -310 z m 201 367 b 388 604 201 536 286 604 b 560 365 494 604 560 536 b 388 126 560 199 488 126 b 201 367 278 126 201 199 z m 275 901 b 379 775 275 832 308 775 b 465 860 432 775 465 814 b 375 932 465 910 422 936 b 481 1019 374 990 418 1028 l 481 1078 b 407 1076 457 1082 435 1082 b 275 901 332 1063 275 992 z "},"ġ":{"ha":779,"x_min":0,"x_max":0,"o":"m 360 -310 b 710 54 568 -310 710 -193 l 710 694 l 557 694 l 557 617 b 349 714 514 676 447 714 b 46 368 175 714 46 579 b 347 15 46 150 174 15 b 557 129 440 15 510 60 l 557 103 l 557 29 b 365 -187 557 -106 497 -187 b 208 -53 288 -187 224 -147 l 57 -53 b 360 -310 72 -224 208 -310 z m 201 367 b 388 604 201 536 286 604 b 560 365 494 604 560 536 b 388 126 560 199 488 126 b 201 367 278 126 201 199 z m 293 935 b 388 840 293 885 338 840 b 481 935 438 840 481 885 b 388 1029 481 985 438 1029 b 293 935 338 1029 293 985 z "},"ḡ":{"ha":779,"x_min":0,"x_max":0,"o":"m 360 -310 b 710 54 568 -310 710 -193 l 710 694 l 557 694 l 557 617 b 349 714 514 676 447 714 b 46 368 175 714 46 579 b 347 15 46 150 174 15 b 557 129 440 15 510 60 l 557 103 l 557 29 b 365 -187 557 -106 497 -187 b 208 -53 288 -187 224 -147 l 57 -53 b 360 -310 72 -224 208 -310 z m 201 367 b 388 604 201 536 286 604 b 560 365 494 604 560 536 b 388 126 560 199 488 126 b 201 367 278 126 201 199 z m 228 849 l 546 849 l 546 933 l 228 933 z "},"h":{"ha":797,"x_min":0,"x_max":0,"o":"m 486 713 b 239 560 390 713 300 672 l 239 989 l 88 989 l 88 0 l 239 0 l 239 329 b 431 585 242 482 324 585 b 564 429 522 585 564 528 l 564 0 l 715 0 l 715 482 b 486 713 715 638 619 713 z "},"ĥ":{"ha":797,"x_min":0,"x_max":0,"o":"m 486 713 b 239 560 390 713 300 672 l 239 989 l 88 989 l 88 0 l 239 0 l 239 329 b 431 585 242 482 324 585 b 564 429 522 585 564 528 l 564 0 l 715 0 l 715 482 b 486 713 715 638 619 713 z m 129 1065 l 253 1065 l 388 1214 l 521 1065 l 644 1065 l 481 1282 l 293 1282 z "},"i":{"ha":335,"x_min":0,"x_max":0,"o":"m 90 694 l 90 0 l 243 0 l 243 694 z m 74 935 b 168 840 74 885 118 840 b 261 935 218 840 261 885 b 168 1029 261 985 218 1029 b 74 935 118 1029 74 985 z "},"ı":{"ha":303,"x_min":0,"x_max":0,"o":"m 75 694 l 75 0 l 228 0 l 228 694 z "},"í":{"ha":303,"x_min":0,"x_max":0,"o":"m 75 694 l 75 0 l 228 0 l 228 694 z m 79 771 l 185 771 l 338 988 l 192 988 z "},"î":{"ha":303,"x_min":0,"x_max":0,"o":"m 75 694 l 75 0 l 228 0 l 228 694 z m -106 771 l 18 771 l 153 919 l 286 771 l 410 771 l 246 988 l 58 988 z "},"ï":{"ha":303,"x_min":0,"x_max":0,"o":"m 75 694 l 75 0 l 228 0 l 228 694 z m -87 903 b -6 821 -87 860 -50 821 b 74 903 38 821 74 860 b -6 983 74 946 38 983 b -87 903 -50 983 -87 946 z m 229 903 b 310 821 229 860 265 821 b 389 903 353 821 389 860 b 310 983 389 946 353 983 b 229 903 265 983 229 946 z "},"ì":{"ha":303,"x_min":0,"x_max":0,"o":"m 75 694 l 75 0 l 228 0 l 228 694 z m -36 988 l 117 771 l 222 771 l 110 988 z "},"ĳ":{"ha":664,"x_min":0,"x_max":0,"o":"m 90 694 l 90 0 l 243 0 l 243 694 z m 74 935 b 168 840 74 885 118 840 b 261 935 218 840 261 885 b 168 1029 261 985 218 1029 b 74 935 118 1029 74 985 z m 267 -297 b 574 -94 465 -343 574 -258 l 574 694 l 421 694 l 421 -39 b 267 -161 421 -151 382 -193 z m 404 935 b 499 840 404 885 449 840 b 592 935 549 840 592 885 b 499 1029 592 985 549 1029 b 404 935 449 1029 404 985 z "},"ī":{"ha":303,"x_min":0,"x_max":0,"o":"m 75 694 l 75 0 l 228 0 l 228 694 z m -7 849 l 311 849 l 311 933 l -7 933 z "},"į":{"ha":303,"x_min":0,"x_max":0,"o":"m 75 694 l 75 0 l 113 0 b -22 -196 46 -46 -22 -117 b 108 -314 -22 -262 35 -314 b 229 -282 144 -314 199 -304 l 229 -211 b 167 -232 204 -226 185 -232 b 110 -172 133 -232 110 -207 b 228 0 110 -119 164 -51 l 228 694 z m 58 935 b 153 840 58 885 103 840 b 246 935 203 840 246 885 b 153 1029 246 985 203 1029 b 58 935 103 1029 58 985 z "},"ĩ":{"ha":303,"x_min":0,"x_max":0,"o":"m 75 694 l 75 0 l 228 0 l 228 694 z m -125 763 l -21 763 l -21 792 b 44 865 -21 835 1 865 b 138 822 78 865 104 844 b 274 768 179 792 221 768 b 429 928 358 768 429 832 l 429 971 l 325 971 l 325 942 b 258 868 325 894 303 868 b 167 913 226 868 200 889 b 31 965 125 942 83 965 b -125 800 -54 965 -125 900 z "},"j":{"ha":407,"x_min":0,"x_max":0,"o":"m 8 -161 l 8 -297 b 315 -94 207 -343 315 -258 l 315 694 l 163 694 l 163 -39 b 8 -161 163 -151 124 -193 z m 146 935 b 240 840 146 885 190 840 b 333 935 290 840 333 885 b 240 1029 333 985 290 1029 b 146 935 190 1029 146 985 z "},"ȷ":{"ha":389,"x_min":0,"x_max":0,"o":"m 10 -161 l 10 -297 b 315 -94 207 -343 315 -258 l 315 694 l 164 694 l 164 -39 b 10 -161 164 -151 125 -193 z "},"ĵ":{"ha":389,"x_min":0,"x_max":0,"o":"m 10 -161 l 10 -297 b 315 -94 207 -343 315 -258 l 315 694 l 164 694 l 164 -39 b 10 -161 164 -151 125 -193 z m -17 771 l 107 771 l 242 919 l 375 771 l 499 771 l 335 988 l 147 988 z "},"k":{"ha":747,"x_min":0,"x_max":0,"o":"m 510 694 l 239 424 l 239 989 l 88 989 l 88 0 l 239 0 l 239 256 l 321 335 l 549 0 l 710 0 l 414 426 l 688 694 z "},"ķ":{"ha":747,"x_min":0,"x_max":0,"o":"m 510 694 l 239 424 l 239 989 l 88 989 l 88 0 l 239 0 l 239 256 l 321 335 l 549 0 l 710 0 l 414 426 l 688 694 z m 283 -386 b 357 -385 307 -390 329 -390 b 489 -210 432 -371 489 -300 b 385 -83 489 -140 456 -83 b 299 -168 332 -83 299 -122 b 389 -240 299 -218 342 -244 b 283 -328 390 -299 346 -336 z "},"l":{"ha":326,"x_min":0,"x_max":0,"o":"m 88 989 l 88 0 l 239 0 l 239 989 z "},"ĺ":{"ha":326,"x_min":0,"x_max":0,"o":"m 88 989 l 88 0 l 239 0 l 239 989 z m 92 1188 l 197 1188 l 350 1404 l 204 1404 z "},"ľ":{"ha":326,"x_min":0,"x_max":0,"o":"m 88 989 l 88 0 l 239 0 l 239 989 z m 349 825 b 422 826 372 821 394 821 b 554 1001 497 840 554 911 b 450 1128 554 1071 521 1128 b 364 1043 397 1128 364 1089 b 454 971 364 993 407 967 b 349 883 456 913 411 875 z "},"ļ":{"ha":326,"x_min":0,"x_max":0,"o":"m 88 989 l 88 0 l 239 0 l 239 989 z m 64 -386 b 138 -385 88 -390 110 -390 b 269 -210 213 -371 269 -300 b 165 -83 269 -140 236 -83 b 79 -168 113 -83 79 -122 b 169 -240 79 -218 122 -244 b 64 -328 171 -299 126 -336 z "},"ł":{"ha":394,"x_min":0,"x_max":0,"o":"m 7 467 l 7 296 l 125 410 l 125 0 l 276 0 l 276 554 l 388 661 l 388 832 l 276 725 l 276 989 l 125 989 l 125 581 z "},"m":{"ha":1264,"x_min":0,"x_max":0,"o":"m 1031 429 l 1031 0 l 1182 0 l 1182 474 b 953 713 1182 629 1086 713 b 701 557 854 713 764 676 b 481 713 675 661 590 713 b 233 560 385 713 294 672 l 233 694 l 82 694 l 82 0 l 233 0 l 233 329 b 425 585 236 482 318 585 b 558 429 517 585 558 528 l 558 0 l 710 0 l 710 385 b 897 585 726 506 793 585 b 1031 429 989 585 1031 528 z "},"n":{"ha":792,"x_min":0,"x_max":0,"o":"m 82 694 l 82 0 l 233 0 l 233 329 b 425 585 236 482 318 585 b 558 429 517 585 558 528 l 558 0 l 710 0 l 710 482 b 481 713 710 638 614 713 b 233 560 385 713 294 672 l 233 694 z "},"ń":{"ha":792,"x_min":0,"x_max":0,"o":"m 82 694 l 82 0 l 233 0 l 233 329 b 425 585 236 482 318 585 b 558 429 517 585 558 528 l 558 0 l 710 0 l 710 482 b 481 713 710 638 614 713 b 233 560 385 713 294 672 l 233 694 z m 335 771 l 440 771 l 593 988 l 447 988 z "},"ň":{"ha":792,"x_min":0,"x_max":0,"o":"m 82 694 l 82 0 l 233 0 l 233 329 b 425 585 236 482 318 585 b 558 429 517 585 558 528 l 558 0 l 710 0 l 710 482 b 481 713 710 638 614 713 b 233 560 385 713 294 672 l 233 694 z m 149 988 l 313 771 l 500 771 l 665 988 l 544 988 l 408 839 l 407 839 l 269 988 z "},"ņ":{"ha":792,"x_min":0,"x_max":0,"o":"m 82 694 l 82 0 l 233 0 l 233 329 b 425 585 236 482 318 585 b 558 429 517 585 558 528 l 558 0 l 710 0 l 710 482 b 481 713 710 638 614 713 b 233 560 385 713 294 672 l 233 694 z m 307 -386 b 381 -385 331 -390 353 -390 b 513 -210 456 -371 513 -300 b 408 -83 513 -140 479 -83 b 322 -168 356 -83 322 -122 b 413 -240 322 -218 365 -244 b 307 -328 414 -299 369 -336 z "},"ñ":{"ha":792,"x_min":0,"x_max":0,"o":"m 82 694 l 82 0 l 233 0 l 233 329 b 425 585 236 482 318 585 b 558 429 517 585 558 528 l 558 0 l 710 0 l 710 482 b 481 713 710 638 614 713 b 233 560 385 713 294 672 l 233 694 z m 131 763 l 235 763 l 235 792 b 300 865 235 835 257 865 b 393 822 333 865 360 844 b 529 768 435 792 476 768 b 685 928 614 768 685 832 l 685 971 l 581 971 l 581 942 b 514 868 581 894 558 868 b 422 913 482 868 456 889 b 286 965 381 942 339 965 b 131 800 201 965 131 900 z "},"o":{"ha":788,"x_min":0,"x_max":0,"o":"m 394 -21 b 732 344 596 -21 732 118 b 394 714 732 564 596 714 b 56 344 193 714 56 564 b 394 -21 56 118 193 -21 z m 214 344 b 394 596 214 508 293 596 b 574 344 496 596 574 508 b 394 97 574 182 496 97 b 214 344 293 97 214 182 z "},"ó":{"ha":788,"x_min":0,"x_max":0,"o":"m 394 -21 b 732 344 596 -21 732 118 b 394 714 732 564 596 714 b 56 344 193 714 56 564 b 394 -21 56 118 193 -21 z m 214 344 b 394 596 214 508 293 596 b 574 344 496 596 574 508 b 394 97 574 182 496 97 b 214 344 293 97 214 182 z m 322 771 l 428 771 l 581 988 l 435 988 z "},"ô":{"ha":788,"x_min":0,"x_max":0,"o":"m 394 -21 b 732 344 596 -21 732 118 b 394 714 732 564 596 714 b 56 344 193 714 56 564 b 394 -21 56 118 193 -21 z m 138 771 l 261 771 l 396 919 l 529 771 l 653 771 l 489 988 l 301 988 z m 214 344 b 394 596 214 508 293 596 b 574 344 496 596 574 508 b 394 97 574 182 496 97 b 214 344 293 97 214 182 z "},"ö":{"ha":788,"x_min":0,"x_max":0,"o":"m 394 -21 b 732 344 596 -21 732 118 b 394 714 732 564 596 714 b 56 344 193 714 56 564 b 394 -21 56 118 193 -21 z m 156 903 b 238 821 156 860 193 821 b 317 903 281 821 317 860 b 238 983 317 946 281 983 b 156 903 193 983 156 946 z m 214 344 b 394 596 214 508 293 596 b 574 344 496 596 574 508 b 394 97 574 182 496 97 b 214 344 293 97 214 182 z m 472 903 b 553 821 472 860 508 821 b 632 903 596 821 632 860 b 553 983 632 946 596 983 b 472 903 508 983 472 946 z "},"ò":{"ha":788,"x_min":0,"x_max":0,"o":"m 394 -21 b 732 344 596 -21 732 118 b 394 714 732 564 596 714 b 56 344 193 714 56 564 b 394 -21 56 118 193 -21 z m 207 988 l 360 771 l 465 771 l 353 988 z m 214 344 b 394 596 214 508 293 596 b 574 344 496 596 574 508 b 394 97 574 182 496 97 b 214 344 293 97 214 182 z "},"ő":{"ha":788,"x_min":0,"x_max":0,"o":"m 394 -21 b 732 344 596 -21 732 118 b 394 714 732 564 596 714 b 56 344 193 714 56 564 b 394 -21 56 118 193 -21 z m 200 771 l 303 771 l 476 988 l 338 988 z m 214 344 b 394 596 214 508 293 596 b 574 344 496 596 574 508 b 394 97 574 182 496 97 b 214 344 293 97 214 182 z m 399 771 l 501 771 l 675 988 l 536 988 z "},"ō":{"ha":788,"x_min":0,"x_max":0,"o":"m 394 -21 b 732 344 596 -21 732 118 b 394 714 732 564 596 714 b 56 344 193 714 56 564 b 394 -21 56 118 193 -21 z m 214 344 b 394 596 214 508 293 596 b 574 344 496 596 574 508 b 394 97 574 182 496 97 b 214 344 293 97 214 182 z m 235 849 l 553 849 l 553 933 l 235 933 z "},"ø":{"ha":788,"x_min":0,"x_max":0,"o":"m 100 -25 l 188 -25 l 219 22 b 394 -21 269 -6 328 -21 b 732 344 596 -21 732 118 b 629 622 732 460 694 557 l 686 706 l 599 706 l 572 667 b 394 714 522 697 463 714 b 56 344 193 714 56 564 b 161 65 56 224 94 128 z m 214 344 b 394 596 214 508 293 596 b 497 558 433 596 469 583 l 247 190 b 214 344 226 229 214 281 z m 294 132 l 543 496 b 574 344 563 457 574 406 b 394 97 574 182 496 97 b 294 132 357 97 322 108 z "},"õ":{"ha":788,"x_min":0,"x_max":0,"o":"m 394 -21 b 732 344 596 -21 732 118 b 394 714 732 564 596 714 b 56 344 193 714 56 564 b 394 -21 56 118 193 -21 z m 118 763 l 222 763 l 222 792 b 288 865 222 835 244 865 b 381 822 321 865 347 844 b 517 768 422 792 464 768 b 672 928 601 768 672 832 l 672 971 l 568 971 l 568 942 b 501 868 568 894 546 868 b 410 913 469 868 443 889 b 274 965 368 942 326 965 b 118 800 189 965 118 900 z m 214 344 b 394 596 214 508 293 596 b 574 344 496 596 574 508 b 394 97 574 182 496 97 b 214 344 293 97 214 182 z "},"œ":{"ha":1296,"x_min":0,"x_max":0,"o":"m 394 -21 b 656 97 506 -21 596 21 b 925 -19 717 24 808 -19 b 1226 226 1081 -19 1199 64 l 1067 226 b 919 99 1051 138 989 99 b 733 328 800 99 735 203 l 1232 328 b 1233 382 1233 350 1235 360 b 914 714 1225 586 1099 714 b 651 597 801 714 711 671 b 394 714 592 671 503 714 b 56 344 193 714 56 564 b 394 -21 56 118 193 -21 z m 214 344 b 394 596 214 508 293 596 b 574 344 496 596 574 508 b 394 97 574 182 496 97 b 214 344 293 97 214 182 z m 739 419 l 739 421 b 914 594 746 531 822 594 b 1071 419 992 594 1065 542 z "},"p":{"ha":799,"x_min":0,"x_max":0,"o":"m 447 718 b 235 614 363 718 286 678 l 233 694 l 88 694 l 88 -294 l 239 -294 l 239 79 b 444 -18 283 22 357 -18 b 743 350 610 -18 743 118 b 447 718 743 589 610 718 z m 233 351 b 413 601 233 515 299 601 b 589 351 513 601 589 522 b 413 99 589 181 504 99 b 233 351 299 99 233 189 z "},"þ":{"ha":799,"x_min":0,"x_max":0,"o":"m 88 -294 l 233 -294 l 233 0 l 236 81 b 449 -24 288 17 363 -24 b 743 344 610 -24 743 106 b 446 713 743 576 610 713 b 239 615 354 713 282 669 b 239 615 239 614 239 614 l 239 989 l 88 989 z m 233 343 b 413 596 233 506 299 596 b 589 343 506 596 589 514 b 413 93 589 172 513 93 b 233 343 299 93 233 179 z "},"q":{"ha":799,"x_min":0,"x_max":0,"o":"m 350 718 b 56 350 189 718 56 589 b 353 -18 56 118 189 -18 b 560 79 444 -18 517 25 b 560 79 560 81 560 81 l 560 -294 l 711 -294 l 711 694 l 565 694 l 563 614 b 350 718 511 678 436 718 z m 210 351 b 386 601 210 522 286 601 b 565 351 500 601 565 515 b 386 99 565 189 500 99 b 210 351 293 99 210 181 z "},"r":{"ha":496,"x_min":0,"x_max":0,"o":"m 82 0 l 233 0 l 233 332 b 408 579 233 461 297 564 b 463 578 426 581 444 581 l 463 713 b 389 710 436 715 413 715 b 233 568 319 699 268 656 l 233 694 l 82 694 z "},"ŕ":{"ha":496,"x_min":0,"x_max":0,"o":"m 82 0 l 233 0 l 233 332 b 408 579 233 461 297 564 b 463 578 426 581 444 581 l 463 713 b 389 710 436 715 413 715 b 233 568 319 699 268 656 l 233 694 l 82 694 z m 176 771 l 282 771 l 435 988 l 289 988 z "},"ř":{"ha":496,"x_min":0,"x_max":0,"o":"m 82 0 l 233 0 l 233 332 b 408 579 233 461 297 564 b 463 578 426 581 444 581 l 463 713 b 389 710 436 715 413 715 b 233 568 319 699 268 656 l 233 694 l 82 694 z m -10 988 l 154 771 l 342 771 l 507 988 l 386 988 l 250 839 l 249 839 l 111 988 z "},"ŗ":{"ha":496,"x_min":0,"x_max":0,"o":"m 82 0 l 233 0 l 233 332 b 408 579 233 461 297 564 b 463 578 426 581 444 581 l 463 713 b 389 710 436 715 413 715 b 233 568 319 699 268 656 l 233 694 l 82 694 z m 60 -386 b 133 -385 83 -390 106 -390 b 265 -210 208 -371 265 -300 b 161 -83 265 -140 232 -83 b 75 -168 108 -83 75 -122 b 165 -240 75 -218 118 -244 b 60 -328 167 -299 122 -336 z "},"s":{"ha":714,"x_min":0,"x_max":0,"o":"m 376 -19 b 671 189 574 -19 671 65 b 490 383 671 301 604 354 l 356 419 b 225 514 282 438 225 454 b 357 599 225 563 274 599 b 508 497 457 599 508 561 l 650 497 b 353 714 650 644 535 714 b 71 504 172 714 71 624 b 253 321 71 394 147 344 l 394 288 b 517 188 479 268 517 240 b 372 97 517 139 481 97 b 197 213 253 97 199 143 l 43 213 b 376 -19 49 65 147 -19 z "},"ś":{"ha":714,"x_min":0,"x_max":0,"o":"m 376 -19 b 671 189 574 -19 671 65 b 490 383 671 301 604 354 l 356 419 b 225 514 282 438 225 454 b 357 599 225 563 274 599 b 508 497 457 599 508 561 l 650 497 b 353 714 650 644 535 714 b 71 504 172 714 71 624 b 253 321 71 394 147 344 l 394 288 b 517 188 479 268 517 240 b 372 97 517 139 481 97 b 197 213 253 97 199 143 l 43 213 b 376 -19 49 65 147 -19 z m 288 771 l 393 771 l 546 988 l 400 988 z "},"š":{"ha":714,"x_min":0,"x_max":0,"o":"m 376 -19 b 671 189 574 -19 671 65 b 490 383 671 301 604 354 l 356 419 b 225 514 282 438 225 454 b 357 599 225 563 274 599 b 508 497 457 599 508 561 l 650 497 b 353 714 650 644 535 714 b 71 504 172 714 71 624 b 253 321 71 394 147 344 l 394 288 b 517 188 479 268 517 240 b 372 97 517 139 481 97 b 197 213 253 97 199 143 l 43 213 b 376 -19 49 65 147 -19 z m 101 988 l 265 771 l 453 771 l 618 988 l 497 988 l 361 839 l 360 839 l 222 988 z "},"ş":{"ha":714,"x_min":0,"x_max":0,"o":"m 375 -67 l 401 -19 b 671 189 582 -12 671 71 b 490 383 671 301 604 354 l 356 419 b 225 514 282 438 225 454 b 357 599 225 563 274 599 b 508 497 457 599 508 561 l 650 497 b 353 714 650 644 535 714 b 71 504 172 714 71 624 b 253 321 71 394 147 344 l 394 288 b 517 188 479 268 517 240 b 372 97 517 139 481 97 b 197 213 253 97 199 143 l 43 213 b 315 -17 49 79 129 -3 l 271 -104 l 317 -140 b 374 -126 335 -131 356 -126 b 436 -178 414 -126 436 -147 b 367 -235 436 -217 403 -235 b 285 -187 328 -235 301 -211 l 214 -218 b 369 -308 244 -281 308 -308 b 526 -176 469 -308 526 -246 b 418 -62 526 -114 482 -69 b 375 -67 403 -62 389 -62 z "},"ŝ":{"ha":714,"x_min":0,"x_max":0,"o":"m 376 -19 b 671 189 574 -19 671 65 b 490 383 671 301 604 354 l 356 419 b 225 514 282 438 225 454 b 357 599 225 563 274 599 b 508 497 457 599 508 561 l 650 497 b 353 714 650 644 535 714 b 71 504 172 714 71 624 b 253 321 71 394 147 344 l 394 288 b 517 188 479 268 517 240 b 372 97 517 139 481 97 b 197 213 253 97 199 143 l 43 213 b 376 -19 49 65 147 -19 z m 103 771 l 226 771 l 361 919 l 494 771 l 618 771 l 454 988 l 267 988 z "},"ș":{"ha":714,"x_min":0,"x_max":0,"o":"m 376 -19 b 671 189 574 -19 671 65 b 490 383 671 301 604 354 l 356 419 b 225 514 282 438 225 454 b 357 599 225 563 274 599 b 508 497 457 599 508 561 l 650 497 b 353 714 650 644 535 714 b 71 504 172 714 71 624 b 253 321 71 394 147 344 l 394 288 b 517 188 479 268 517 240 b 372 97 517 139 481 97 b 197 213 253 97 199 143 l 43 213 b 376 -19 49 65 147 -19 z m 261 -386 b 335 -385 285 -390 307 -390 b 467 -210 410 -371 467 -300 b 363 -83 467 -140 433 -83 b 276 -168 310 -83 276 -122 b 367 -240 276 -218 319 -244 b 261 -328 368 -299 324 -336 z "},"ß":{"ha":822,"x_min":0,"x_max":0,"o":"m 351 -308 l 418 -308 b 767 -32 631 -308 765 -210 b 596 225 767 97 711 182 b 761 450 707 265 761 340 b 472 713 761 599 646 713 b 239 618 353 713 276 672 l 239 989 l 88 989 l 88 0 l 239 0 l 239 410 b 439 589 246 524 322 589 b 599 440 539 589 599 532 b 415 288 599 347 532 288 l 351 288 l 351 165 l 429 165 b 606 -12 532 165 604 94 b 429 -187 607 -140 531 -187 l 351 -187 z "},"t":{"ha":474,"x_min":0,"x_max":0,"o":"m 436 10 l 436 125 b 265 229 331 79 265 122 l 265 578 l 410 578 l 410 694 l 265 694 l 265 1001 l 260 1001 l 114 879 l 114 694 l 19 694 l 19 578 l 114 578 l 114 192 b 185 25 114 136 133 71 b 436 10 246 -28 358 -33 z "},"ť":{"ha":446,"x_min":0,"x_max":0,"o":"m 436 10 l 436 125 b 265 229 331 79 265 122 l 265 578 l 410 578 l 410 694 l 265 694 l 265 1001 l 260 1001 l 114 879 l 114 694 l 19 694 l 19 578 l 114 578 l 114 192 b 185 25 114 136 133 71 b 436 10 246 -28 358 -33 z m 339 781 b 413 782 363 776 385 776 b 544 957 488 796 544 867 b 440 1083 544 1026 511 1083 b 354 999 388 1083 354 1044 b 444 926 354 949 397 922 b 339 839 446 868 401 831 z "},"ţ":{"ha":474,"x_min":0,"x_max":0,"o":"m 436 10 l 436 125 b 265 229 331 79 265 122 l 265 578 l 410 578 l 410 694 l 265 694 l 265 1001 l 260 1001 l 114 879 l 114 694 l 19 694 l 19 578 l 114 578 l 114 192 b 185 25 114 136 133 71 b 251 -10 203 10 226 -3 l 204 -104 l 250 -140 b 307 -126 268 -131 289 -126 b 369 -178 347 -126 369 -147 b 300 -235 369 -217 336 -235 b 218 -187 261 -235 235 -211 l 147 -218 b 303 -308 178 -281 242 -308 b 460 -176 403 -308 460 -246 b 351 -62 460 -114 415 -69 b 308 -67 336 -62 322 -62 l 335 -18 b 436 10 371 -17 406 -7 z "},"ț":{"ha":474,"x_min":0,"x_max":0,"o":"m 436 10 l 436 125 b 265 229 331 79 265 122 l 265 578 l 410 578 l 410 694 l 265 694 l 265 1001 l 260 1001 l 114 879 l 114 694 l 19 694 l 19 578 l 114 578 l 114 192 b 185 25 114 136 133 71 b 436 10 246 -28 358 -33 z m 194 -386 b 268 -385 218 -390 240 -390 b 400 -210 343 -371 400 -300 b 296 -83 400 -140 367 -83 b 210 -168 243 -83 210 -122 b 300 -240 210 -218 253 -244 b 194 -328 301 -299 257 -336 z "},"u":{"ha":792,"x_min":0,"x_max":0,"o":"m 710 0 l 710 694 l 558 694 l 558 365 b 367 110 556 213 474 110 b 233 265 275 110 233 167 l 233 694 l 82 694 l 82 213 b 311 -18 82 57 178 -18 b 558 135 407 -18 497 22 l 558 0 z "},"ú":{"ha":792,"x_min":0,"x_max":0,"o":"m 710 0 l 710 694 l 558 694 l 558 365 b 367 110 556 213 474 110 b 233 265 275 110 233 167 l 233 694 l 82 694 l 82 213 b 311 -18 82 57 178 -18 b 558 135 407 -18 497 22 l 558 0 z m 308 771 l 414 771 l 567 988 l 421 988 z "},"ŭ":{"ha":792,"x_min":0,"x_max":0,"o":"m 710 0 l 710 694 l 558 694 l 558 365 b 367 110 556 213 474 110 b 233 265 275 110 233 167 l 233 694 l 82 694 l 82 213 b 311 -18 82 57 178 -18 b 558 135 407 -18 497 22 l 558 0 z m 164 976 b 379 763 165 836 265 763 b 594 976 493 763 593 836 l 493 976 b 379 853 492 890 444 853 b 265 976 314 853 267 890 z "},"û":{"ha":792,"x_min":0,"x_max":0,"o":"m 710 0 l 710 694 l 558 694 l 558 365 b 367 110 556 213 474 110 b 233 265 275 110 233 167 l 233 694 l 82 694 l 82 213 b 311 -18 82 57 178 -18 b 558 135 407 -18 497 22 l 558 0 z m 124 771 l 247 771 l 382 919 l 515 771 l 639 771 l 475 988 l 288 988 z "},"ü":{"ha":792,"x_min":0,"x_max":0,"o":"m 710 0 l 710 694 l 558 694 l 558 365 b 367 110 556 213 474 110 b 233 265 275 110 233 167 l 233 694 l 82 694 l 82 213 b 311 -18 82 57 178 -18 b 558 135 407 -18 497 22 l 558 0 z m 142 903 b 224 821 142 860 179 821 b 303 903 267 821 303 860 b 224 983 303 946 267 983 b 142 903 179 983 142 946 z m 458 903 b 539 821 458 860 494 821 b 618 903 582 821 618 860 b 539 983 618 946 582 983 b 458 903 494 983 458 946 z "},"ù":{"ha":792,"x_min":0,"x_max":0,"o":"m 710 0 l 710 694 l 558 694 l 558 365 b 367 110 556 213 474 110 b 233 265 275 110 233 167 l 233 694 l 82 694 l 82 213 b 311 -18 82 57 178 -18 b 558 135 407 -18 497 22 l 558 0 z m 193 988 l 346 771 l 451 771 l 339 988 z "},"ư":{"ha":792,"x_min":0,"x_max":0,"o":"m 710 0 l 710 589 b 874 743 813 589 874 647 l 874 817 l 768 817 l 768 756 b 694 694 768 708 740 694 l 558 694 l 558 365 b 367 110 556 213 474 110 b 233 265 275 110 233 167 l 233 694 l 82 694 l 82 213 b 311 -18 82 57 178 -18 b 558 135 407 -18 497 22 l 558 0 z "},"ű":{"ha":792,"x_min":0,"x_max":0,"o":"m 710 0 l 710 694 l 558 694 l 558 365 b 367 110 556 213 474 110 b 233 265 275 110 233 167 l 233 694 l 82 694 l 82 213 b 311 -18 82 57 178 -18 b 558 135 407 -18 497 22 l 558 0 z m 186 771 l 289 771 l 463 988 l 324 988 z m 385 771 l 488 771 l 661 988 l 522 988 z "},"ū":{"ha":792,"x_min":0,"x_max":0,"o":"m 710 0 l 710 694 l 558 694 l 558 365 b 367 110 556 213 474 110 b 233 265 275 110 233 167 l 233 694 l 82 694 l 82 213 b 311 -18 82 57 178 -18 b 558 135 407 -18 497 22 l 558 0 z m 221 849 l 539 849 l 539 933 l 221 933 z "},"ų":{"ha":792,"x_min":0,"x_max":0,"o":"m 710 0 l 710 694 l 558 694 l 558 365 b 367 110 556 213 474 110 b 233 265 275 110 233 167 l 233 694 l 82 694 l 82 213 b 311 -18 82 57 178 -18 b 558 135 407 -18 497 22 l 558 0 l 581 0 b 446 -196 514 -46 446 -117 b 576 -314 446 -262 503 -314 b 697 -282 613 -314 667 -304 l 697 -211 b 635 -232 672 -226 653 -232 b 578 -172 601 -232 578 -207 b 696 0 578 -119 632 -51 z "},"ů":{"ha":792,"x_min":0,"x_max":0,"o":"m 710 0 l 710 694 l 558 694 l 558 365 b 367 110 556 213 474 110 b 233 265 275 110 233 167 l 233 694 l 82 694 l 82 213 b 311 -18 82 57 178 -18 b 558 135 407 -18 497 22 l 558 0 z m 217 926 b 379 1089 217 1015 289 1089 b 542 926 467 1089 542 1015 b 379 765 542 839 467 765 b 217 926 289 765 217 839 z m 304 926 b 379 851 304 885 338 851 b 454 926 419 851 454 885 b 379 1003 454 969 419 1003 b 304 926 338 1003 304 969 z "},"ũ":{"ha":792,"x_min":0,"x_max":0,"o":"m 710 0 l 710 694 l 558 694 l 558 365 b 367 110 556 213 474 110 b 233 265 275 110 233 167 l 233 694 l 82 694 l 82 213 b 311 -18 82 57 178 -18 b 558 135 407 -18 497 22 l 558 0 z m 104 763 l 208 763 l 208 792 b 274 865 208 835 231 865 b 367 822 307 865 333 844 b 503 768 408 792 450 768 b 658 928 588 768 658 832 l 658 971 l 554 971 l 554 942 b 488 868 554 894 532 868 b 396 913 456 868 429 889 b 260 965 354 942 313 965 b 104 800 175 965 104 900 z "},"v":{"ha":750,"x_min":0,"x_max":0,"o":"m 563 694 l 376 181 l 189 694 l 15 694 l 300 0 l 450 0 l 736 694 z "},"w":{"ha":1121,"x_min":0,"x_max":0,"o":"m 249 0 l 418 0 l 560 501 l 703 0 l 872 0 l 1106 694 l 929 694 l 779 182 l 778 182 l 640 694 l 481 694 l 343 182 l 342 182 l 192 694 l 15 694 z "},"ẃ":{"ha":1121,"x_min":0,"x_max":0,"o":"m 249 0 l 418 0 l 560 501 l 703 0 l 872 0 l 1106 694 l 929 694 l 779 182 l 778 182 l 640 694 l 481 694 l 343 182 l 342 182 l 192 694 l 15 694 z m 489 771 l 594 771 l 747 988 l 601 988 z "},"ŵ":{"ha":1121,"x_min":0,"x_max":0,"o":"m 249 0 l 418 0 l 560 501 l 703 0 l 872 0 l 1106 694 l 929 694 l 779 182 l 778 182 l 640 694 l 481 694 l 343 182 l 342 182 l 192 694 l 15 694 z m 304 771 l 428 771 l 563 919 l 696 771 l 819 771 l 656 988 l 468 988 z "},"ẅ":{"ha":1121,"x_min":0,"x_max":0,"o":"m 249 0 l 418 0 l 560 501 l 703 0 l 872 0 l 1106 694 l 929 694 l 779 182 l 778 182 l 640 694 l 481 694 l 343 182 l 342 182 l 192 694 l 15 694 z m 321 903 b 403 821 321 860 358 821 b 482 903 446 821 482 860 b 403 983 482 946 446 983 b 321 903 358 983 321 946 z m 638 903 b 718 821 638 860 674 821 b 797 903 761 821 797 860 b 718 983 797 946 761 983 b 638 903 674 983 638 946 z "},"ẁ":{"ha":1121,"x_min":0,"x_max":0,"o":"m 249 0 l 418 0 l 560 501 l 703 0 l 872 0 l 1106 694 l 929 694 l 779 182 l 778 182 l 640 694 l 481 694 l 343 182 l 342 182 l 192 694 l 15 694 z m 372 988 l 525 771 l 631 771 l 518 988 z "},"x":{"ha":721,"x_min":0,"x_max":0,"o":"m 528 694 l 360 460 l 193 694 l 19 694 l 278 349 l 19 0 l 186 0 l 358 240 l 535 0 l 701 0 l 440 349 l 701 694 z "},"y":{"ha":744,"x_min":0,"x_max":0,"o":"m 175 -294 l 326 -294 l 722 694 l 558 694 l 378 185 l 186 694 l 24 694 l 306 19 z "},"ý":{"ha":744,"x_min":0,"x_max":0,"o":"m 175 -294 l 326 -294 l 722 694 l 558 694 l 378 185 l 186 694 l 24 694 l 306 19 z m 319 771 l 425 771 l 578 988 l 432 988 z "},"ŷ":{"ha":744,"x_min":0,"x_max":0,"o":"m 175 -294 l 326 -294 l 722 694 l 558 694 l 378 185 l 186 694 l 24 694 l 306 19 z m 135 771 l 258 771 l 393 919 l 526 771 l 650 771 l 486 988 l 299 988 z "},"ÿ":{"ha":744,"x_min":0,"x_max":0,"o":"m 175 -294 l 326 -294 l 722 694 l 558 694 l 378 185 l 186 694 l 24 694 l 306 19 z m 151 903 b 233 821 151 860 189 821 b 313 903 276 821 313 860 b 233 983 313 946 276 983 b 151 903 189 983 151 946 z m 468 903 b 549 821 468 860 504 821 b 628 903 592 821 628 860 b 549 983 628 946 592 983 b 468 903 504 983 468 946 z "},"ỳ":{"ha":744,"x_min":0,"x_max":0,"o":"m 175 -294 l 326 -294 l 722 694 l 558 694 l 378 185 l 186 694 l 24 694 l 306 19 z m 203 988 l 356 771 l 461 771 l 349 988 z "},"ỹ":{"ha":744,"x_min":0,"x_max":0,"o":"m 175 -294 l 326 -294 l 722 694 l 558 694 l 378 185 l 186 694 l 24 694 l 306 19 z m 114 763 l 218 763 l 218 792 b 283 865 218 835 240 865 b 376 822 317 865 343 844 b 513 768 418 792 460 768 b 668 928 597 768 668 832 l 668 971 l 564 971 l 564 942 b 497 868 564 894 542 868 b 406 913 465 868 439 889 b 269 965 364 942 322 965 b 114 800 185 965 114 900 z "},"z":{"ha":703,"x_min":0,"x_max":0,"o":"m 54 575 l 471 575 l 54 128 l 54 0 l 649 0 l 649 118 l 243 118 l 649 557 l 649 694 l 54 694 z "},"ź":{"ha":703,"x_min":0,"x_max":0,"o":"m 54 575 l 471 575 l 54 128 l 54 0 l 649 0 l 649 118 l 243 118 l 649 557 l 649 694 l 54 694 z m 279 771 l 385 771 l 538 988 l 392 988 z "},"ž":{"ha":703,"x_min":0,"x_max":0,"o":"m 54 575 l 471 575 l 54 128 l 54 0 l 649 0 l 649 118 l 243 118 l 649 557 l 649 694 l 54 694 z m 93 988 l 257 771 l 444 771 l 610 988 l 489 988 l 353 839 l 351 839 l 214 988 z "},"ż":{"ha":703,"x_min":0,"x_max":0,"o":"m 54 575 l 471 575 l 54 128 l 54 0 l 649 0 l 649 118 l 243 118 l 649 557 l 649 694 l 54 694 z m 258 935 b 353 840 258 885 303 840 b 446 935 403 840 446 885 b 353 1029 446 985 403 1029 b 258 935 303 1029 258 985 z "},"ﬁ":{"ha":794,"x_min":0,"x_max":0,"o":"m 124 579 l 124 0 l 275 0 l 275 578 l 443 578 l 443 694 l 275 694 l 275 799 b 453 890 275 893 343 932 l 453 1001 b 336 1032 421 1022 378 1032 b 124 821 206 1032 124 943 l 124 694 l 24 694 l 24 579 z m 535 935 b 629 840 535 885 579 840 b 722 935 679 840 722 885 b 629 1029 722 985 679 1029 b 535 935 579 1029 535 985 z m 551 0 l 704 0 l 704 694 l 551 694 z "},"ﬂ":{"ha":790,"x_min":0,"x_max":0,"o":"m 124 579 l 124 0 l 275 0 l 275 578 l 443 578 l 443 694 l 275 694 l 275 799 b 453 890 275 893 343 932 l 453 1001 b 336 1032 421 1022 378 1032 b 124 821 206 1032 124 943 l 124 694 l 24 694 l 24 579 z m 551 0 l 703 0 l 703 989 l 551 989 z "},"¹":{"ha":300,"x_min":0,"x_max":0,"o":"m 167 863 l 167 329 l 272 329 l 272 989 l 164 989 l 28 835 l 28 707 z "},"²":{"ha":543,"x_min":0,"x_max":0,"o":"m 36 401 l 36 326 l 511 326 l 511 414 l 182 414 b 207 433 192 421 199 428 b 501 810 422 633 501 683 b 281 1000 501 918 419 1000 b 32 753 113 1000 35 899 l 143 753 b 275 907 143 857 189 907 b 392 800 354 907 392 854 b 307 651 392 739 356 700 b 250 601 289 636 269 619 b 94 456 207 558 146 504 b 36 401 72 435 51 417 z "},"³":{"ha":538,"x_min":0,"x_max":0,"o":"m 404 664 b 510 819 475 693 510 743 b 282 1004 510 931 419 1004 b 42 788 119 1004 40 910 l 153 788 b 275 913 154 871 197 913 b 393 814 347 913 393 875 b 265 708 393 744 342 708 l 192 708 l 192 617 l 275 617 b 393 511 342 617 393 583 b 275 404 393 442 342 404 b 139 532 182 404 139 461 l 28 532 b 272 314 26 417 104 314 b 510 500 417 314 510 386 b 404 664 510 582 475 635 z "},"⁄":{"ha":825,"x_min":0,"x_max":0,"o":"m 11 0 l 161 0 l 903 989 l 753 989 z "},"½":{"ha":1239,"x_min":0,"x_max":0,"o":"m 167 863 l 167 329 l 272 329 l 272 989 l 164 989 l 28 835 l 28 707 z m 99 0 l 249 0 l 990 989 l 840 989 z m 728 425 l 839 425 b 971 579 839 529 885 579 b 1088 472 1050 579 1088 526 b 1003 324 1088 411 1051 372 b 946 274 985 308 965 292 b 790 128 903 231 842 176 b 732 74 768 107 747 89 l 732 -1 l 1207 -1 l 1207 86 l 878 86 b 903 106 888 93 894 100 b 1197 482 1118 306 1197 356 b 976 672 1197 590 1115 672 b 728 425 808 672 731 571 z "},"⅓":{"ha":1251,"x_min":0,"x_max":0,"o":"m 103 0 l 253 0 l 994 989 l 844 989 z m 28 707 l 167 863 l 167 329 l 272 329 l 272 989 l 164 989 l 28 835 z m 742 203 b 986 -15 740 88 818 -15 b 1224 171 1131 -15 1224 57 b 1118 335 1224 253 1189 306 b 1224 490 1189 364 1224 414 b 996 675 1224 601 1133 675 b 756 458 833 675 754 581 l 867 458 b 989 583 868 542 911 583 b 1107 485 1061 583 1107 546 b 979 379 1107 415 1056 379 l 906 379 l 906 288 l 989 288 b 1107 182 1056 288 1107 254 b 989 75 1107 113 1056 75 b 853 203 896 75 853 132 z "},".":{"ha":279,"x_min":0,"x_max":0,"o":"m 139 -8 b 231 82 190 -8 231 33 b 139 175 231 133 190 175 b 49 82 89 175 49 133 b 139 -8 49 33 89 -8 z "},",":{"ha":344,"x_min":0,"x_max":0,"o":"m 67 -90 l 67 -149 b 140 -147 90 -153 113 -153 b 272 28 215 -133 272 -62 b 168 154 272 97 239 154 b 82 69 115 154 82 115 b 172 -3 82 19 125 -7 b 67 -90 174 -61 129 -99 z "},":":{"ha":322,"x_min":0,"x_max":0,"o":"m 167 -8 b 258 82 218 -8 258 33 b 167 175 258 133 218 175 b 76 82 117 175 76 133 b 167 -8 76 33 117 -8 z m 76 593 b 167 503 76 544 117 503 b 258 593 218 503 258 544 b 167 686 258 644 218 686 b 76 593 117 686 76 644 z "},";":{"ha":346,"x_min":0,"x_max":0,"o":"m 71 -90 l 71 -149 b 144 -147 94 -153 117 -153 b 276 28 219 -133 276 -62 b 172 154 276 97 243 154 b 86 69 119 154 86 115 b 176 -3 86 19 129 -7 b 71 -90 178 -61 133 -99 z m 89 596 b 179 506 89 547 129 506 b 271 596 231 506 271 547 b 179 689 271 647 231 689 b 89 596 129 689 89 647 z "},"…":{"ha":932,"x_min":0,"x_max":0,"o":"m 783 -8 b 875 82 835 -8 875 33 b 783 175 875 133 835 175 b 693 82 733 175 693 133 b 783 -8 693 33 733 -8 z m 71 82 b 161 -8 71 33 111 -8 b 253 82 213 -8 253 33 b 161 175 253 133 213 175 b 71 82 111 175 71 133 z m 382 82 b 472 -8 382 33 422 -8 b 564 82 524 -8 564 33 b 472 175 564 133 524 175 b 382 82 422 175 382 133 z "},"!":{"ha":311,"x_min":0,"x_max":0,"o":"m 83 264 l 222 264 l 236 989 l 69 989 z m 69 75 b 160 -14 69 28 110 -14 b 251 75 211 -14 251 28 b 160 168 251 126 211 168 b 69 75 110 168 69 126 z "},"¡":{"ha":315,"x_min":0,"x_max":0,"o":"m 233 443 l 94 443 l 81 -282 l 247 -282 z m 65 632 b 157 539 65 581 106 539 b 247 632 207 539 247 581 b 157 722 247 681 207 722 b 65 632 106 722 65 681 z "},"?":{"ha":785,"x_min":0,"x_max":0,"o":"m 244 343 l 244 264 l 401 264 l 401 333 b 464 435 401 379 421 408 b 600 515 513 464 553 489 b 739 735 660 549 739 610 b 413 1006 739 906 594 1006 b 47 699 199 1006 47 907 l 208 699 b 401 871 208 806 265 871 b 576 725 507 871 576 804 b 482 583 576 647 542 619 b 313 482 428 551 363 514 b 244 343 269 453 244 403 z m 239 75 b 329 -14 239 28 279 -14 b 421 75 381 -14 421 28 b 329 168 421 126 381 168 b 239 75 279 168 239 126 z "},"¿":{"ha":767,"x_min":0,"x_max":0,"o":"m 468 504 l 468 583 l 311 583 l 311 514 b 249 413 311 468 292 439 b 113 332 200 383 160 358 b -26 113 53 299 -26 238 b 300 -158 -26 -58 118 -158 b 665 149 514 -158 665 -60 l 504 149 b 311 -24 504 42 447 -24 b 136 122 206 -24 136 43 b 231 264 136 200 171 228 b 400 365 285 296 350 333 b 468 504 443 394 468 444 z m 292 772 b 383 679 292 721 332 679 b 474 772 433 679 474 721 b 383 863 474 821 433 863 b 292 772 332 863 292 821 z "},"·":{"ha":264,"x_min":0,"x_max":0,"o":"m 139 269 b 231 360 190 269 231 311 b 139 453 231 411 190 453 b 49 360 89 453 49 411 b 139 269 49 311 89 269 z "},"•":{"ha":622,"x_min":0,"x_max":0,"o":"m 321 124 b 576 375 464 124 576 240 b 321 635 576 518 464 635 b 69 375 181 635 69 518 b 321 124 69 240 181 124 z "},"*":{"ha":606,"x_min":0,"x_max":0,"o":"m 490 804 l 339 739 l 351 911 l 254 911 l 268 739 l 117 804 l 85 714 l 247 669 l 132 544 l 207 486 l 303 626 l 399 486 l 475 544 l 358 669 l 521 714 z "},"#":{"ha":1069,"x_min":0,"x_max":0,"o":"m 103 0 l 210 0 l 321 310 l 533 310 l 422 0 l 529 0 l 640 310 l 861 310 l 861 403 l 675 403 l 751 615 l 958 615 l 958 708 l 785 708 l 886 989 l 775 989 l 675 708 l 465 708 l 567 989 l 457 989 l 357 708 l 143 708 l 143 615 l 324 615 l 247 403 l 46 403 l 46 310 l 214 310 z m 356 403 l 432 615 l 642 615 l 565 403 z "},"/":{"ha":564,"x_min":0,"x_max":0,"o":"m 35 -24 l 161 -24 l 529 1008 l 403 1008 z "},"\\":{"ha":631,"x_min":0,"x_max":0,"o":"m 528 -24 l 160 1008 l 33 1008 l 401 -24 z "},"(":{"ha":643,"x_min":0,"x_max":0,"o":"m 622 1025 l 622 1146 b 64 492 357 1146 64 947 b 622 -171 64 33 357 -171 l 622 -50 b 206 486 400 -50 206 147 b 622 1025 206 824 400 1025 z "},")":{"ha":639,"x_min":0,"x_max":0,"o":"m 17 -50 l 17 -171 b 575 483 282 -171 575 28 b 17 1146 575 942 282 1146 l 17 1025 b 433 489 239 1025 433 828 b 17 -50 433 151 239 -50 z "},"{":{"ha":424,"x_min":0,"x_max":0,"o":"m 33 508 l 33 392 b 107 331 90 392 107 371 l 107 -35 b 254 -182 107 -126 161 -182 l 371 -182 l 371 -64 l 311 -64 b 229 19 264 -64 229 -31 l 229 350 b 172 450 229 396 214 431 b 229 550 214 469 229 504 l 229 881 b 311 964 229 931 264 964 l 371 964 l 371 1082 l 254 1082 b 107 935 161 1082 107 1026 l 107 569 b 33 508 107 529 90 508 z "},"}":{"ha":424,"x_min":0,"x_max":0,"o":"m 53 -182 l 169 -182 b 317 -35 263 -182 317 -126 l 317 331 b 390 392 317 371 333 392 l 390 508 b 317 569 333 508 317 529 l 317 935 b 169 1082 317 1026 263 1082 l 53 1082 l 53 964 l 113 964 b 194 881 160 964 194 931 l 194 550 b 251 450 194 504 211 469 b 194 350 211 431 194 396 l 194 19 b 113 -64 194 -31 160 -64 l 53 -64 z "},"[":{"ha":531,"x_min":0,"x_max":0,"o":"m 75 1154 l 75 -196 l 514 -196 l 514 -93 l 215 -93 l 215 1051 l 514 1051 l 514 1154 z "},"]":{"ha":531,"x_min":0,"x_max":0,"o":"m 17 -185 l 456 -185 l 456 1143 l 17 1143 l 17 1039 l 315 1039 l 315 -82 l 17 -82 z "},"-":{"ha":571,"x_min":0,"x_max":0,"o":"m 501 447 l 69 447 l 69 331 l 501 331 z "},"–":{"ha":899,"x_min":0,"x_max":0,"o":"m 69 447 l 69 331 l 828 331 l 828 447 z "},"—":{"ha":1250,"x_min":0,"x_max":0,"o":"m 69 447 l 69 331 l 1181 331 l 1181 447 z "},"_":{"ha":919,"x_min":0,"x_max":0,"o":"m 69 -53 l 69 -169 l 850 -169 l 850 -53 z "},"‚":{"ha":300,"x_min":0,"x_max":0,"o":"m 67 -90 l 67 -149 b 140 -147 90 -153 113 -153 b 272 28 215 -133 272 -62 b 168 154 272 97 239 154 b 82 69 115 154 82 115 b 172 -3 82 19 125 -7 b 67 -90 174 -61 129 -99 z "},"„":{"ha":465,"x_min":0,"x_max":0,"o":"m 6 -90 l 6 -149 b 79 -147 29 -153 51 -153 b 211 28 154 -133 211 -62 b 107 154 211 97 178 154 b 21 69 54 154 21 115 b 111 -3 21 19 64 -7 b 6 -90 113 -61 68 -99 z m 246 -149 b 319 -147 269 -153 292 -153 b 451 28 394 -133 451 -62 b 347 154 451 97 418 154 b 261 69 294 154 261 115 b 351 -3 261 19 304 -7 b 246 -90 353 -61 308 -99 z "},"“":{"ha":465,"x_min":0,"x_max":0,"o":"m 461 964 l 461 1022 b 388 1021 438 1026 415 1026 b 256 846 313 1007 256 936 b 360 719 256 776 289 719 b 446 804 413 719 446 758 b 356 876 446 854 403 881 b 461 964 354 935 399 972 z m 14 846 b 118 719 14 776 47 719 b 204 804 171 719 204 758 b 114 876 204 854 161 881 b 219 964 113 935 157 972 l 219 1022 b 146 1021 196 1026 174 1026 b 14 846 71 1007 14 936 z "},"”":{"ha":482,"x_min":0,"x_max":0,"o":"m 13 785 l 13 726 b 86 728 36 722 58 722 b 218 903 161 742 218 813 b 114 1029 218 972 185 1029 b 28 944 61 1029 28 990 b 118 872 28 894 71 868 b 13 785 119 814 75 776 z m 253 726 b 326 728 276 722 299 722 b 458 903 401 742 458 813 b 354 1029 458 972 425 1029 b 268 944 301 1029 268 990 b 358 872 268 894 311 868 b 253 785 360 814 315 776 z "},"‘":{"ha":264,"x_min":0,"x_max":0,"o":"m 247 965 l 247 1024 b 174 1022 224 1028 201 1028 b 42 847 99 1008 42 938 b 146 721 42 778 75 721 b 232 806 199 721 232 760 b 142 878 232 856 189 882 b 247 965 140 936 185 974 z "},"’":{"ha":269,"x_min":0,"x_max":0,"o":"m 43 785 l 43 726 b 117 728 67 722 89 722 b 249 903 192 742 249 813 b 144 1029 249 972 215 1029 b 58 944 92 1029 58 990 b 149 872 58 894 101 868 b 43 785 150 814 106 776 z "},"«":{"ha":624,"x_min":0,"x_max":0,"o":"m 56 378 l 56 306 l 318 14 l 318 149 l 149 340 l 318 535 l 318 681 z m 306 306 l 568 14 l 568 149 l 399 340 l 568 535 l 568 681 l 306 378 z "},"»":{"ha":624,"x_min":0,"x_max":0,"o":"m 568 378 l 306 681 l 306 535 l 475 340 l 306 149 l 306 14 l 568 306 z m 56 14 l 318 306 l 318 378 l 56 681 l 56 535 l 225 340 l 56 149 z "},"‹":{"ha":374,"x_min":0,"x_max":0,"o":"m 56 378 l 56 306 l 318 14 l 318 149 l 149 340 l 318 535 l 318 681 z "},"›":{"ha":374,"x_min":0,"x_max":0,"o":"m 318 378 l 56 681 l 56 535 l 225 340 l 56 149 l 56 14 l 318 306 z "},"\"":{"ha":392,"x_min":0,"x_max":0,"o":"m 118 1057 l 125 710 l 250 710 l 256 1057 z "},"'":{"ha":318,"x_min":0,"x_max":0,"o":"m 113 1057 l 119 710 l 213 710 l 218 1057 z "},"¢":{"ha":758,"x_min":0,"x_max":0,"o":"m 368 -174 l 421 -174 l 421 -19 b 707 226 565 -12 681 69 l 551 226 b 421 100 538 146 483 107 l 421 594 b 551 465 489 589 536 550 l 707 465 b 421 714 693 615 575 707 l 421 868 l 368 868 l 368 713 b 56 344 183 696 56 551 b 368 -18 56 143 175 -3 z m 214 344 b 368 593 214 489 282 575 l 368 101 b 214 344 272 119 214 214 z "},"¤":{"ha":833,"x_min":0,"x_max":0,"o":"m 590 494 b 403 301 592 382 511 301 b 215 494 294 301 214 382 b 403 686 214 606 294 686 b 590 494 511 686 592 606 z m 58 225 l 132 151 l 232 253 b 403 203 279 221 338 203 b 572 253 465 203 524 221 l 674 151 l 747 225 l 646 325 b 700 494 681 372 700 429 b 647 663 700 557 681 615 l 747 763 l 674 836 l 572 735 b 403 785 524 767 465 785 b 235 733 340 785 282 765 l 132 836 l 58 763 l 160 661 b 106 494 125 614 106 557 b 158 325 106 431 125 372 z "},"$":{"ha":900,"x_min":0,"x_max":0,"o":"m 425 1128 l 425 1008 b 74 726 203 1003 74 890 b 318 468 74 586 167 507 l 425 439 l 425 114 b 221 315 300 124 222 185 l 56 315 b 425 -18 56 96 215 -8 l 425 -156 l 486 -156 l 486 -19 b 844 274 694 -11 844 89 b 575 554 844 429 747 510 l 486 578 l 486 875 b 658 704 603 863 658 804 l 821 704 b 486 1007 813 908 682 996 l 486 1128 z m 235 742 b 425 878 235 818 307 875 l 425 593 b 235 742 307 622 235 658 z m 486 113 l 486 422 l 517 414 b 683 260 622 388 683 343 b 486 113 683 171 607 119 z "},"€":{"ha":1001,"x_min":0,"x_max":0,"o":"m 583 593 l 238 593 b 536 871 269 758 385 871 b 778 669 682 871 765 783 l 933 669 b 532 1003 919 869 751 1003 b 74 593 292 1003 110 843 l -36 593 l -36 539 l 68 539 b 67 500 67 526 67 513 b 68 449 67 482 67 465 l -36 449 l -36 393 l 75 393 b 531 -17 115 143 294 -17 b 939 299 749 -17 906 104 l 782 299 b 539 117 764 192 674 117 b 240 393 390 117 275 228 l 583 393 l 583 449 l 232 449 b 229 499 231 465 229 482 b 231 539 229 513 229 526 l 583 539 z "},"ƒ":{"ha":564,"x_min":0,"x_max":0,"o":"m 28 -93 l 28 -204 b 144 -235 60 -224 103 -235 b 358 -22 276 -235 358 -146 l 358 578 l 526 578 l 526 694 l 358 694 l 358 799 b 536 890 358 893 426 932 l 536 1001 b 419 1032 504 1022 461 1032 b 207 821 289 1032 207 943 l 207 694 l 107 694 l 107 579 l 207 579 l 207 0 l 206 0 b 28 -93 206 -94 138 -135 z "},"£":{"ha":778,"x_min":0,"x_max":0,"o":"m 746 114 l 253 114 b 317 296 300 154 317 231 l 317 438 l 508 438 l 508 547 l 317 547 l 317 701 b 469 888 317 824 371 888 b 613 739 554 888 608 831 l 746 739 b 467 1006 742 903 635 1006 b 165 701 275 1006 165 893 l 165 547 l 38 547 l 38 438 l 165 438 l 165 294 b 28 118 165 178 121 122 l 28 0 l 746 0 z "},"¥":{"ha":928,"x_min":0,"x_max":0,"o":"m 746 426 l 572 426 l 885 989 l 711 989 l 464 525 l 218 989 l 43 989 l 357 426 l 182 426 l 182 379 l 383 379 l 386 374 l 386 329 l 182 329 l 182 282 l 386 282 l 386 0 l 543 0 l 543 282 l 746 282 l 746 329 l 543 329 l 543 374 l 546 379 l 746 379 z "},"+":{"ha":835,"x_min":0,"x_max":0,"o":"m 765 407 l 475 407 l 475 694 l 360 694 l 360 407 l 69 407 l 69 290 l 360 290 l 360 1 l 475 1 l 475 290 l 765 290 z "},"−":{"ha":833,"x_min":0,"x_max":0,"o":"m 765 438 l 69 438 l 69 322 l 765 322 z "},"×":{"ha":768,"x_min":0,"x_max":0,"o":"m 671 144 l 467 349 l 669 551 b 588 633 643 579 615 606 l 385 431 l 179 635 b 97 553 153 608 124 581 l 303 347 l 99 143 b 181 63 125 117 153 89 l 385 267 l 589 61 b 671 144 615 89 643 117 z "},"÷":{"ha":833,"x_min":0,"x_max":0,"o":"m 422 546 b 514 636 474 546 514 588 b 422 729 514 688 474 729 b 332 636 372 729 332 688 b 422 546 332 588 372 546 z m 69 322 l 765 322 l 765 438 l 69 438 z m 332 133 b 422 43 332 85 372 43 b 514 133 474 43 514 85 b 422 226 514 185 474 226 b 332 133 372 226 332 185 z "},"=":{"ha":833,"x_min":0,"x_max":0,"o":"m 764 246 l 69 246 l 69 129 l 764 129 z m 69 447 l 764 447 l 764 563 l 69 563 z "},"≠":{"ha":833,"x_min":0,"x_max":0,"o":"m 528 794 l 439 563 l 69 563 l 69 447 l 394 447 l 317 246 l 69 246 l 69 129 l 272 129 l 196 -69 l 307 -69 l 383 129 l 764 129 l 764 246 l 428 246 l 506 447 l 764 447 l 764 563 l 550 563 l 639 794 z "},">":{"ha":771,"x_min":0,"x_max":0,"o":"m 692 431 l 78 714 l 78 571 l 558 353 l 78 133 l 78 -10 l 692 274 z "},"<":{"ha":763,"x_min":0,"x_max":0,"o":"m 689 714 l 75 431 l 75 274 l 689 -10 l 689 133 l 208 353 l 689 571 z "},"≥":{"ha":833,"x_min":0,"x_max":0,"o":"m 694 628 l 81 911 l 81 768 l 561 550 l 81 331 l 81 188 l 694 471 z m 69 -53 l 765 -53 l 765 63 l 69 63 z "},"≤":{"ha":835,"x_min":0,"x_max":0,"o":"m 722 911 l 108 628 l 108 471 l 722 188 l 722 331 l 242 550 l 722 768 z m 71 -53 l 767 -53 l 767 63 l 71 63 z "},"±":{"ha":750,"x_min":0,"x_max":0,"o":"m 724 631 l 433 631 l 433 918 l 318 918 l 318 631 l 28 631 l 28 514 l 318 514 l 318 225 l 433 225 l 433 514 l 724 514 z m 28 47 l 724 47 l 724 163 l 28 163 z "},"≈":{"ha":833,"x_min":0,"x_max":0,"o":"m 138 306 l 138 268 l 242 268 l 242 297 b 307 371 242 340 264 371 b 400 328 340 371 367 350 b 536 274 442 297 483 274 b 692 433 621 274 692 338 l 692 476 l 588 476 l 588 447 b 521 374 588 400 565 374 b 429 418 489 374 463 394 b 293 471 388 447 346 471 b 138 306 208 471 138 406 z m 138 556 l 242 556 l 242 585 b 307 658 242 628 264 658 b 400 615 340 658 367 638 b 536 561 442 585 483 561 b 692 721 621 561 692 625 l 692 764 l 588 764 l 588 735 b 521 661 588 688 565 661 b 429 706 489 661 463 682 b 293 758 388 735 346 758 b 138 593 208 758 138 693 z "},"~":{"ha":833,"x_min":0,"x_max":0,"o":"m 138 451 l 138 414 l 242 414 l 242 443 b 307 517 242 486 264 517 b 400 474 340 517 367 496 b 536 419 442 443 483 419 b 692 579 621 419 692 483 l 692 622 l 588 622 l 588 593 b 521 519 588 546 565 519 b 429 564 489 519 463 540 b 293 617 388 593 346 617 b 138 451 208 617 138 551 z "},"¬":{"ha":833,"x_min":0,"x_max":0,"o":"m 69 438 l 69 322 l 647 322 l 647 143 l 765 143 l 765 438 z "},"^":{"ha":572,"x_min":0,"x_max":0,"o":"m 28 771 l 151 771 l 286 919 l 419 771 l 543 771 l 379 988 l 192 988 z "},"∞":{"ha":1157,"x_min":0,"x_max":0,"o":"m 853 707 b 579 557 735 707 651 644 b 306 707 510 644 424 707 b 28 428 150 707 28 590 b 306 149 28 265 150 149 b 579 299 424 149 510 211 b 853 149 651 211 735 149 b 1129 428 1008 149 1129 265 b 853 707 1129 590 1008 707 z m 169 428 b 310 568 169 515 225 568 b 507 428 392 568 456 510 b 310 288 457 346 393 288 b 169 428 225 288 169 340 z m 657 428 b 850 567 703 508 767 567 b 988 428 931 567 988 514 b 850 289 988 342 931 289 b 657 428 767 289 703 347 z "},"∫":{"ha":515,"x_min":0,"x_max":0,"o":"m 28 -161 l 28 -297 b 333 -94 225 -343 333 -258 l 333 735 b 488 856 333 846 372 888 l 488 993 b 182 790 290 1039 182 954 l 182 -39 b 28 -161 182 -151 143 -193 z "},"∏":{"ha":935,"x_min":0,"x_max":0,"o":"m 92 -215 l 249 -215 l 249 863 l 686 863 l 686 -215 l 843 -215 l 843 989 l 92 989 z "},"∑":{"ha":638,"x_min":0,"x_max":0,"o":"m 28 0 l 610 0 l 610 124 l 204 124 l 476 492 l 204 867 l 608 867 l 608 990 l 28 990 l 28 872 l 308 492 l 28 117 z "},"√":{"ha":833,"x_min":0,"x_max":0,"o":"m 15 694 l 300 0 l 450 0 l 825 986 l 1043 986 l 1043 1111 l 722 1111 l 376 181 l 189 694 z "},"%":{"ha":989,"x_min":0,"x_max":0,"o":"m 39 0 l 200 0 l 954 1017 l 793 1017 z m 28 800 b 244 585 28 681 124 585 b 463 800 365 585 463 681 b 244 1018 463 922 365 1018 b 28 800 124 1018 28 922 z m 138 800 b 244 910 138 861 185 910 b 353 800 306 910 353 861 b 244 693 353 742 306 693 b 138 800 185 693 138 742 z m 522 181 b 739 -36 522 60 618 -36 b 957 181 861 -36 957 60 b 739 397 957 301 861 397 b 522 181 618 397 522 301 z m 632 181 b 739 290 632 240 679 290 b 847 181 800 290 847 242 b 739 72 847 121 800 72 b 632 181 679 72 632 121 z "},"‰":{"ha":1482,"x_min":0,"x_max":0,"o":"m 1238 -36 b 1454 181 1358 -36 1454 60 b 1238 397 1454 301 1358 397 b 1021 181 1117 397 1021 301 b 1238 -36 1021 60 1117 -36 z m 28 800 b 244 585 28 681 124 585 b 463 800 365 585 463 681 b 244 1018 463 922 365 1018 b 28 800 124 1018 28 922 z m 39 0 l 200 0 l 954 1017 l 793 1017 z m 138 800 b 244 910 138 861 185 910 b 353 800 306 910 353 861 b 244 693 353 742 306 693 b 138 800 185 693 138 742 z m 522 181 b 739 -36 522 60 618 -36 b 957 181 861 -36 957 60 b 739 397 957 301 861 397 b 522 181 618 397 522 301 z m 632 181 b 739 290 632 240 679 290 b 847 181 800 290 847 242 b 739 72 847 121 800 72 b 632 181 679 72 632 121 z m 1129 181 b 1238 290 1129 242 1176 290 b 1346 181 1299 290 1346 242 b 1238 71 1346 119 1299 71 b 1129 181 1176 71 1129 119 z "},"→":{"ha":865,"x_min":0,"x_max":0,"o":"m 88 -19 l 778 492 l 778 506 l 88 1017 l 88 860 l 586 500 l 586 497 l 88 136 z "},"←":{"ha":786,"x_min":0,"x_max":0,"o":"m 699 1006 l 8 494 l 8 481 l 699 -31 l 699 126 l 200 486 l 200 489 l 699 850 z "},"◊":{"ha":729,"x_min":0,"x_max":0,"o":"m 338 -17 l 392 -17 l 701 492 l 701 508 l 392 1017 l 338 1017 l 28 508 l 28 492 z m 149 500 l 364 876 l 582 500 l 364 124 z "},"@":{"ha":1222,"x_min":0,"x_max":0,"o":"m 610 -219 l 782 -219 l 782 -151 l 610 -151 b 119 356 317 -151 119 75 b 610 863 119 636 329 863 b 1093 340 890 863 1093 635 b 990 96 1093 196 1067 96 b 911 211 950 96 911 125 l 911 694 l 758 694 l 758 617 b 550 714 715 676 649 714 b 249 368 376 714 249 579 b 549 15 249 150 375 15 b 767 133 644 15 718 61 b 942 1 781 47 850 1 b 1164 342 1108 1 1164 164 b 610 931 1164 674 928 931 b 51 356 292 931 51 674 b 610 -219 51 38 281 -219 z m 403 367 b 589 608 403 536 488 608 b 763 367 696 608 763 536 b 589 124 763 199 689 124 b 403 367 479 124 403 199 z "},"&":{"ha":971,"x_min":0,"x_max":0,"o":"m 421 -19 b 703 57 524 -19 622 7 l 757 0 l 972 0 l 819 158 b 911 429 876 231 911 322 l 757 429 b 718 264 757 369 744 313 l 475 515 l 542 551 b 706 776 626 597 706 664 b 426 1008 707 906 599 1008 b 135 757 240 1008 135 892 b 240 540 135 669 175 610 b 46 267 146 492 46 410 b 421 -19 46 85 193 -19 z m 207 269 b 340 443 207 360 275 406 l 614 157 b 424 113 564 129 501 113 b 207 269 304 113 207 171 z m 290 765 b 426 883 290 833 342 883 b 550 776 507 883 550 833 b 428 632 550 718 500 669 l 383 610 b 290 765 335 661 290 717 z "},"¶":{"ha":885,"x_min":0,"x_max":0,"o":"m 772 989 l 615 989 l 617 0 l 774 0 z m 28 715 b 340 436 28 515 174 436 l 363 436 l 363 0 l 519 0 l 519 989 l 343 989 b 28 715 174 989 28 904 z "},"§":{"ha":794,"x_min":0,"x_max":0,"o":"m 83 493 b 299 285 83 354 181 314 l 399 261 b 529 167 472 243 529 228 b 397 82 529 119 481 82 b 246 183 297 82 249 119 l 104 183 b 401 -32 111 36 219 -32 b 683 176 582 -32 683 57 b 599 317 683 246 651 289 b 711 486 672 351 711 410 b 496 693 711 625 614 665 l 396 717 b 265 811 322 735 265 751 b 397 897 265 860 314 897 b 550 794 497 897 546 860 l 690 794 b 393 1011 685 943 575 1011 b 111 803 214 1011 111 922 b 196 663 111 733 144 690 b 83 493 124 628 83 563 z m 226 490 b 389 590 226 551 274 590 b 568 490 511 590 568 546 b 407 389 568 426 521 389 b 226 490 283 389 226 432 z "},"©":{"ha":1208,"x_min":0,"x_max":0,"o":"m 604 -81 b 1139 454 910 -81 1139 149 b 604 989 1139 760 910 989 b 69 454 299 989 69 760 b 604 -81 69 149 299 -81 z m 133 454 b 604 929 133 725 336 929 b 1075 454 872 929 1075 725 b 604 -21 1075 183 872 -21 b 133 454 336 -21 133 183 z m 269 454 b 615 90 269 242 403 90 b 921 336 769 90 893 172 l 765 336 b 615 208 750 247 685 208 b 428 454 500 208 428 310 b 617 706 428 618 514 706 b 765 575 694 706 749 667 l 921 575 b 617 824 907 731 779 824 b 269 454 414 824 269 674 z "},"®":{"ha":689,"x_min":0,"x_max":0,"o":"m 344 435 b 647 738 517 435 647 565 b 344 1040 647 911 517 1040 b 42 738 171 1040 42 911 b 344 435 42 565 171 435 z m 96 738 b 344 988 96 881 203 988 b 594 738 485 988 594 881 b 344 486 594 596 485 486 b 96 738 203 486 96 596 z m 228 592 l 285 592 l 285 724 l 363 724 b 403 696 385 724 396 718 l 429 592 l 489 592 l 489 599 b 469 656 481 610 475 633 l 457 704 b 419 744 451 726 439 740 b 472 821 450 756 472 785 b 376 910 472 879 435 910 l 228 910 z m 285 771 b 285 860 285 771 285 860 l 364 860 b 413 817 394 860 413 846 b 357 771 413 789 393 771 z "},"™":{"ha":1229,"x_min":0,"x_max":0,"o":"m 513 892 l 513 989 l 22 989 l 22 892 l 210 892 l 210 461 l 325 461 l 325 892 z m 574 461 l 690 461 l 690 843 l 826 463 l 954 463 l 1092 843 l 1092 461 l 1207 461 l 1207 989 l 1025 989 l 890 610 l 757 989 l 574 989 z "},"°":{"ha":461,"x_min":0,"x_max":0,"o":"m 231 619 b 426 813 340 619 426 704 b 231 1010 426 924 340 1010 b 35 813 121 1010 35 924 b 231 619 35 704 121 619 z m 146 813 b 231 903 146 863 182 903 b 315 813 279 903 315 863 b 231 726 315 765 279 726 b 146 813 182 726 146 765 z "},"|":{"ha":631,"x_min":0,"x_max":0,"o":"m 257 1250 l 257 -294 l 374 -294 l 374 1250 z "},"¦":{"ha":631,"x_min":0,"x_max":0,"o":"m 257 694 l 374 694 l 374 1250 l 257 1250 z m 257 -294 l 374 -294 l 374 261 l 257 261 z "},"†":{"ha":496,"x_min":0,"x_max":0,"o":"m 172 650 l 172 0 l 325 0 l 325 650 l 454 650 l 454 765 l 325 765 l 325 997 l 172 997 l 172 765 l 42 765 l 42 650 z "},"‡":{"ha":496,"x_min":0,"x_max":0,"o":"m 172 253 l 172 0 l 325 0 l 325 253 l 454 253 l 454 368 l 325 368 l 325 650 l 454 650 l 454 765 l 325 765 l 325 997 l 172 997 l 172 765 l 42 765 l 42 650 l 172 650 l 172 368 l 42 368 l 42 253 z "},"̈":{"ha":0,"x_min":0,"x_max":0,"o":"m 169 821 b 249 903 213 821 249 860 b 169 983 249 946 213 983 b 88 903 125 983 88 946 b 169 821 88 860 125 821 z m 404 903 b 485 821 404 860 440 821 b 564 903 528 821 564 860 b 485 983 564 946 528 983 b 404 903 440 983 404 946 z "},"̇":{"ha":0,"x_min":0,"x_max":0,"o":"m 186 840 b 279 935 236 840 279 885 b 186 1029 279 985 236 1029 b 92 935 136 1029 92 985 b 186 840 92 885 136 840 z "},"̀":{"ha":0,"x_min":0,"x_max":0,"o":"m 474 771 l 361 988 l 215 988 l 368 771 z "},"́":{"ha":0,"x_min":0,"x_max":0,"o":"m 331 771 l 436 771 l 589 988 l 443 988 z "},"̋":{"ha":0,"x_min":0,"x_max":0,"o":"m 272 771 l 375 771 l 549 988 l 410 988 z m 471 771 l 574 771 l 747 988 l 608 988 z "},"̂":{"ha":0,"x_min":0,"x_max":0,"o":"m 158 771 l 282 771 l 417 919 l 550 771 l 674 771 l 510 988 l 322 988 z "},"̌":{"ha":0,"x_min":0,"x_max":0,"o":"m 382 771 l 569 771 l 735 988 l 614 988 l 478 839 l 476 839 l 339 988 l 218 988 z "},"̆":{"ha":0,"x_min":0,"x_max":0,"o":"m 657 976 l 556 976 b 442 853 554 890 507 853 b 328 976 376 853 329 890 l 226 976 b 442 763 228 836 328 763 b 657 976 556 763 656 836 z "},"̊":{"ha":0,"x_min":0,"x_max":0,"o":"m 328 851 b 403 926 368 851 403 885 b 328 1003 403 969 368 1003 b 253 926 286 1003 253 969 b 328 851 253 885 286 851 z m 165 926 b 328 1089 165 1015 238 1089 b 490 926 415 1089 490 1015 b 328 765 490 839 415 765 b 165 926 238 765 165 839 z "},"̃":{"ha":0,"x_min":0,"x_max":0,"o":"m 138 800 l 138 763 l 242 763 l 242 792 b 307 865 242 835 264 865 b 400 822 340 865 367 844 b 536 768 442 792 483 768 b 692 928 621 768 692 832 l 692 971 l 588 971 l 588 942 b 521 868 588 894 565 868 b 429 913 489 868 463 889 b 293 965 388 942 346 965 b 138 800 208 965 138 900 z "},"̄":{"ha":0,"x_min":0,"x_max":0,"o":"m 450 933 l 132 933 l 132 849 l 450 849 z "},"̒":{"ha":0,"x_min":0,"x_max":0,"o":"m 258 1019 l 258 1078 b 185 1076 235 1082 213 1082 b 53 901 110 1063 53 992 b 157 775 53 832 86 775 b 243 860 210 775 243 814 b 153 932 243 910 200 936 b 258 1019 151 990 196 1028 z "},"̛":{"ha":0,"x_min":0,"x_max":0,"o":"m 140 589 l 160 589 b 324 743 263 589 324 647 l 324 817 l 218 817 l 218 756 b 144 694 218 708 190 694 l 140 694 z "},"̦":{"ha":0,"x_min":0,"x_max":0,"o":"m 60 -328 l 60 -386 b 133 -385 83 -390 106 -390 b 265 -210 208 -371 265 -300 b 161 -83 265 -140 232 -83 b 75 -168 108 -83 75 -122 b 165 -240 75 -218 118 -244 b 60 -328 167 -299 122 -336 z "},"̧":{"ha":0,"x_min":0,"x_max":0,"o":"m 446 -67 l 482 0 l 394 0 l 342 -104 l 388 -140 b 444 -126 406 -131 426 -126 b 507 -178 485 -126 507 -147 b 438 -235 507 -217 474 -235 b 356 -187 399 -235 372 -211 l 285 -218 b 440 -308 315 -281 379 -308 b 597 -176 540 -308 597 -246 b 489 -62 597 -114 553 -69 b 446 -67 474 -62 460 -62 z "},"̨":{"ha":0,"x_min":0,"x_max":0,"o":"m 183 -314 b 304 -282 219 -314 274 -304 l 304 -211 b 242 -232 279 -226 260 -232 b 185 -172 208 -232 185 -207 b 303 0 185 -119 239 -51 l 188 0 b 53 -196 121 -46 53 -117 b 183 -314 53 -262 110 -314 z "},"¨":{"ha":747,"x_min":0,"x_max":0,"o":"m 157 821 b 236 903 200 821 236 860 b 157 983 236 946 200 983 b 75 903 113 983 75 946 b 157 821 75 860 113 821 z m 392 903 b 472 821 392 860 428 821 b 551 903 515 821 551 860 b 472 983 551 946 515 983 b 392 903 428 983 392 946 z "},"˙":{"ha":300,"x_min":0,"x_max":0,"o":"m 157 819 b 240 903 203 819 240 857 b 157 986 240 949 203 986 b 74 903 111 986 74 949 b 157 819 74 857 111 819 z "},"`":{"ha":833,"x_min":0,"x_max":0,"o":"m 574 771 l 461 988 l 315 988 l 468 771 z "},"´":{"ha":833,"x_min":0,"x_max":0,"o":"m 326 771 l 432 771 l 585 988 l 439 988 z "},"˝":{"ha":833,"x_min":0,"x_max":0,"o":"m 285 771 l 388 771 l 561 988 l 422 988 z m 483 771 l 586 771 l 760 988 l 621 988 z "},"ˆ":{"ha":833,"x_min":0,"x_max":0,"o":"m 158 771 l 282 771 l 417 919 l 550 771 l 674 771 l 510 988 l 322 988 z "},"ˇ":{"ha":833,"x_min":0,"x_max":0,"o":"m 382 771 l 569 771 l 735 988 l 614 988 l 478 839 l 476 839 l 339 988 l 218 988 z "},"˘":{"ha":833,"x_min":0,"x_max":0,"o":"m 657 976 l 556 976 b 442 853 554 890 507 853 b 328 976 376 853 329 890 l 226 976 b 442 763 228 836 328 763 b 657 976 556 763 656 836 z "},"˚":{"ha":833,"x_min":0,"x_max":0,"o":"m 490 779 b 615 904 560 779 615 835 b 490 1029 615 974 560 1029 b 365 904 421 1029 365 974 b 490 779 365 835 421 779 z m 410 904 b 490 985 410 949 446 985 b 571 904 535 985 571 949 b 490 824 571 860 535 824 b 410 904 446 824 410 860 z "},"˜":{"ha":833,"x_min":0,"x_max":0,"o":"m 138 800 l 138 763 l 242 763 l 242 792 b 307 865 242 835 264 865 b 400 822 340 865 367 844 b 536 768 442 792 483 768 b 692 928 621 768 692 832 l 692 971 l 588 971 l 588 942 b 521 868 588 894 565 868 b 429 913 489 868 463 889 b 293 965 388 942 346 965 b 138 800 208 965 138 900 z "},"¯":{"ha":571,"x_min":0,"x_max":0,"o":"m 450 933 l 132 933 l 132 849 l 450 849 z "},"¸":{"ha":833,"x_min":0,"x_max":0,"o":"m 446 -67 l 482 0 l 394 0 l 342 -104 l 388 -140 b 444 -126 406 -131 426 -126 b 507 -178 485 -126 507 -147 b 438 -235 507 -217 474 -235 b 356 -187 399 -235 372 -211 l 285 -218 b 440 -308 315 -281 379 -308 b 597 -176 540 -308 597 -246 b 489 -62 597 -114 553 -69 b 446 -67 474 -62 460 -62 z "},"˛":{"ha":833,"x_min":0,"x_max":0,"o":"m 183 -314 b 304 -282 219 -314 274 -304 l 304 -211 b 242 -232 279 -226 260 -232 b 185 -172 208 -232 185 -207 b 303 0 185 -119 239 -51 l 188 0 b 53 -196 121 -46 53 -117 b 183 -314 53 -262 110 -314 z "}}}
